<svg width="23" height="22" viewBox="0 0 23 22" fill="none" xmlns="http://www.w3.org/2000/svg">
<path d="M16.6499 7.39239C16.6499 5.95757 16.0799 4.58153 15.0654 3.56696C14.0508 2.5524 12.6748 1.98242 11.2399 1.98242C9.80513 1.98242 8.42909 2.5524 7.41452 3.56696C6.39996 4.58153 5.82998 5.95757 5.82998 7.39239C5.82998 13.704 3.125 15.5073 3.125 15.5073H19.3549C19.3549 15.5073 16.6499 13.704 16.6499 7.39239Z" stroke="#FCFCD8" stroke-linecap="round" stroke-linejoin="round"/>
<path d="M12.8033 19.1152C12.6448 19.3885 12.4173 19.6153 12.1435 19.773C11.8698 19.9307 11.5594 20.0137 11.2435 20.0137C10.9275 20.0137 10.6172 19.9307 10.3434 19.773C10.0696 19.6153 9.84212 19.3885 9.68359 19.1152" stroke="#FCFCD8" stroke-linecap="round" stroke-linejoin="round"/>
</svg>
