<svg width="260" height="126" viewBox="0 0 260 126" fill="none" xmlns="http://www.w3.org/2000/svg">
<rect x="46.5" y="0.5" width="155" height="101" rx="16.5" stroke="white" stroke-opacity="0.09"/>
<path d="M162.889 60.5125L166.987 81.3169C167.329 83.0574 169.6 83.5232 170.601 82.0582L174.581 76.229C174.851 75.8332 175.255 75.5475 175.718 75.4242L183.53 73.3441C185.223 72.8932 185.559 70.6374 184.071 69.7126L165.907 58.4272C164.422 57.5045 162.551 58.7972 162.889 60.5125Z" fill="#E1FF26" stroke="#2C283B" stroke-width="2"/>
<rect x="175" y="83" width="84.4074" height="43" rx="20" fill="#181B1C"/>
<path d="M198.408 100.359H197.054V98.7031H198.408V100.359ZM198.408 111.109C198.408 111.842 198.227 112.373 197.866 112.702C197.516 113.042 197.038 113.212 196.433 113.212C196.189 113.212 195.96 113.19 195.748 113.148V111.985C195.801 111.996 195.849 112.001 195.891 112.001C195.923 112.012 195.96 112.017 196.003 112.017H196.29C196.587 112.017 196.789 111.932 196.895 111.762C197.001 111.603 197.054 111.311 197.054 110.886V101.841H198.408V111.109Z" fill="#E1FF26"/>
<path d="M207.48 110.042C207.247 110.18 206.923 110.249 206.509 110.249C206.159 110.249 205.877 110.154 205.665 109.963C205.463 109.761 205.362 109.437 205.362 108.991C204.991 109.437 204.555 109.761 204.056 109.963C203.568 110.154 203.037 110.249 202.464 110.249C202.092 110.249 201.736 110.207 201.397 110.122C201.068 110.037 200.781 109.904 200.537 109.724C200.292 109.543 200.096 109.31 199.947 109.023C199.809 108.726 199.74 108.37 199.74 107.956C199.74 107.489 199.82 107.107 199.979 106.809C200.139 106.512 200.346 106.273 200.6 106.093C200.866 105.902 201.163 105.758 201.492 105.663C201.832 105.567 202.177 105.488 202.527 105.424C202.899 105.35 203.249 105.296 203.579 105.265C203.918 105.222 204.216 105.169 204.47 105.105C204.725 105.031 204.927 104.93 205.076 104.803C205.224 104.665 205.299 104.468 205.299 104.213C205.299 103.916 205.24 103.677 205.123 103.497C205.017 103.316 204.874 103.178 204.693 103.083C204.523 102.987 204.327 102.923 204.104 102.892C203.892 102.86 203.679 102.844 203.467 102.844C202.894 102.844 202.416 102.955 202.034 103.178C201.651 103.391 201.444 103.799 201.413 104.405H200.059C200.08 103.895 200.186 103.465 200.377 103.115C200.569 102.764 200.823 102.483 201.142 102.271C201.46 102.048 201.821 101.888 202.225 101.793C202.639 101.697 203.079 101.649 203.547 101.649C203.918 101.649 204.285 101.676 204.646 101.729C205.017 101.782 205.352 101.894 205.649 102.063C205.946 102.223 206.185 102.451 206.366 102.748C206.546 103.046 206.636 103.433 206.636 103.911V108.147C206.636 108.466 206.652 108.699 206.684 108.848C206.727 108.997 206.854 109.071 207.066 109.071C207.183 109.071 207.321 109.044 207.48 108.991V110.042ZM205.283 105.822C205.113 105.949 204.89 106.045 204.614 106.109C204.338 106.162 204.046 106.21 203.738 106.252C203.44 106.284 203.138 106.326 202.83 106.379C202.522 106.422 202.246 106.496 202.002 106.602C201.758 106.709 201.556 106.863 201.397 107.064C201.248 107.255 201.174 107.521 201.174 107.861C201.174 108.083 201.216 108.275 201.301 108.434C201.397 108.583 201.513 108.705 201.651 108.8C201.8 108.896 201.97 108.965 202.161 109.007C202.352 109.05 202.554 109.071 202.766 109.071C203.212 109.071 203.594 109.013 203.913 108.896C204.231 108.768 204.492 108.614 204.693 108.434C204.895 108.243 205.044 108.041 205.139 107.829C205.235 107.606 205.283 107.399 205.283 107.208V105.822Z" fill="#E1FF26"/>
<path d="M208.422 101.841H209.696V103.051H209.728C210.343 102.117 211.23 101.649 212.387 101.649C212.897 101.649 213.359 101.756 213.773 101.968C214.187 102.18 214.479 102.541 214.649 103.051C214.925 102.605 215.286 102.26 215.732 102.016C216.188 101.772 216.687 101.649 217.229 101.649C217.643 101.649 218.014 101.697 218.344 101.793C218.683 101.878 218.97 102.016 219.204 102.207C219.448 102.398 219.634 102.647 219.761 102.955C219.899 103.253 219.968 103.614 219.968 104.038V110.074H218.614V104.675C218.614 104.421 218.593 104.182 218.551 103.959C218.508 103.736 218.429 103.545 218.312 103.385C218.195 103.215 218.03 103.083 217.818 102.987C217.616 102.892 217.351 102.844 217.022 102.844C216.353 102.844 215.827 103.035 215.445 103.417C215.063 103.799 214.872 104.309 214.872 104.946V110.074H213.518V104.675C213.518 104.41 213.491 104.166 213.438 103.943C213.396 103.72 213.316 103.529 213.2 103.369C213.083 103.2 212.923 103.072 212.722 102.987C212.531 102.892 212.281 102.844 211.973 102.844C211.58 102.844 211.241 102.923 210.954 103.083C210.678 103.242 210.45 103.433 210.269 103.656C210.099 103.879 209.972 104.113 209.887 104.357C209.813 104.59 209.775 104.787 209.775 104.946V110.074H208.422V101.841Z" fill="#E1FF26"/>
<path d="M227.398 105.169C227.377 104.851 227.303 104.548 227.175 104.261C227.058 103.975 226.894 103.73 226.681 103.529C226.48 103.316 226.235 103.152 225.949 103.035C225.673 102.908 225.365 102.844 225.025 102.844C224.675 102.844 224.356 102.908 224.07 103.035C223.794 103.152 223.555 103.316 223.353 103.529C223.151 103.741 222.992 103.991 222.875 104.277C222.758 104.553 222.689 104.851 222.668 105.169H227.398ZM228.704 107.462C228.524 108.386 228.125 109.082 227.51 109.549C226.894 110.016 226.119 110.249 225.184 110.249C224.526 110.249 223.953 110.143 223.464 109.931C222.987 109.719 222.583 109.421 222.254 109.039C221.925 108.657 221.675 108.2 221.505 107.669C221.346 107.139 221.256 106.56 221.235 105.933C221.235 105.307 221.33 104.734 221.521 104.213C221.713 103.693 221.978 103.242 222.318 102.86C222.668 102.478 223.077 102.18 223.544 101.968C224.022 101.756 224.542 101.649 225.105 101.649C225.837 101.649 226.443 101.803 226.92 102.111C227.409 102.409 227.796 102.791 228.083 103.258C228.38 103.725 228.582 104.235 228.688 104.787C228.805 105.339 228.853 105.864 228.831 106.363H222.668C222.657 106.724 222.7 107.07 222.795 107.399C222.891 107.717 223.045 108.004 223.257 108.259C223.47 108.503 223.74 108.699 224.07 108.848C224.399 108.997 224.786 109.071 225.232 109.071C225.805 109.071 226.273 108.938 226.634 108.673C227.005 108.407 227.249 108.004 227.366 107.462H228.704Z" fill="#E1FF26"/>
<path d="M230.744 107.478C230.755 107.776 230.824 108.03 230.951 108.243C231.079 108.444 231.243 108.609 231.445 108.736C231.657 108.853 231.891 108.938 232.146 108.991C232.411 109.044 232.682 109.071 232.958 109.071C233.17 109.071 233.393 109.055 233.627 109.023C233.86 108.991 234.073 108.933 234.264 108.848C234.466 108.763 234.63 108.641 234.758 108.482C234.885 108.312 234.949 108.099 234.949 107.845C234.949 107.494 234.816 107.229 234.551 107.048C234.285 106.868 233.951 106.724 233.547 106.618C233.154 106.502 232.724 106.401 232.257 106.316C231.79 106.22 231.355 106.093 230.951 105.933C230.558 105.764 230.229 105.53 229.964 105.233C229.698 104.935 229.566 104.521 229.566 103.991C229.566 103.576 229.656 103.221 229.836 102.923C230.028 102.626 230.266 102.387 230.553 102.207C230.85 102.016 231.18 101.878 231.541 101.793C231.912 101.697 232.278 101.649 232.639 101.649C233.107 101.649 233.537 101.692 233.929 101.777C234.322 101.851 234.667 101.989 234.965 102.191C235.273 102.382 235.517 102.647 235.697 102.987C235.878 103.316 235.984 103.73 236.016 104.229H234.662C234.641 103.964 234.572 103.746 234.455 103.576C234.338 103.396 234.19 103.253 234.009 103.146C233.829 103.04 233.627 102.966 233.404 102.923C233.192 102.87 232.974 102.844 232.751 102.844C232.549 102.844 232.342 102.86 232.13 102.892C231.928 102.923 231.742 102.982 231.572 103.067C231.403 103.141 231.265 103.247 231.158 103.385C231.052 103.513 230.999 103.683 230.999 103.895C230.999 104.129 231.079 104.325 231.238 104.484C231.408 104.633 231.62 104.76 231.875 104.866C232.13 104.962 232.417 105.047 232.735 105.121C233.054 105.185 233.372 105.254 233.691 105.328C234.03 105.403 234.359 105.493 234.678 105.599C235.007 105.705 235.294 105.849 235.538 106.029C235.793 106.199 235.995 106.417 236.143 106.682C236.302 106.947 236.382 107.277 236.382 107.669C236.382 108.168 236.276 108.583 236.064 108.912C235.862 109.241 235.591 109.506 235.251 109.708C234.922 109.91 234.545 110.048 234.121 110.122C233.706 110.207 233.292 110.249 232.878 110.249C232.422 110.249 231.986 110.202 231.572 110.106C231.158 110.011 230.792 109.857 230.474 109.644C230.155 109.421 229.9 109.135 229.709 108.784C229.518 108.423 229.412 107.988 229.391 107.478H230.744Z" fill="#E1FF26"/>
<rect y="15" width="156" height="105" rx="17" fill="#242829"/>
<rect x="0.5" y="15.5" width="155" height="104" rx="16.5" stroke="white" stroke-opacity="0.09"/>
<rect x="20" y="43" width="116" height="9" rx="4.5" fill="#414447"/>
<rect x="20" y="62" width="116" height="9" rx="4.5" fill="#414447"/>
<rect x="20" y="81" width="64" height="9" rx="4.5" fill="#414447"/>
</svg>
