<svg width="261" height="42" viewBox="0 0 261 42" fill="none" xmlns="http://www.w3.org/2000/svg">
<path d="M17.0161 8.88161V15.2675L32.6061 6.22689V0L17.0161 8.88161Z" fill="#FCFCD8"/>
<path d="M29.7813 9.85547L24.3281 13.0846L39.9237 22.1168L45.2389 18.9685L29.7813 9.85547Z" fill="#FCFCD8"/>
<path d="M5.4532 18.9453L0 22.1745L15.5955 31.2039L20.9108 28.0556L5.4532 18.9453Z" fill="#FCFCD8"/>
<path d="M12.4536 34.8308V41.2195L28.0436 32.1789V25.9492L12.4536 34.8308Z" fill="#FCFCD8"/>
<path d="M15.1958 4.72032L9.6709 1.625L9.93294 19.7926L15.3199 22.8126L15.1958 4.72032Z" fill="#FCFCD8"/>
<path d="M35.2391 21.4536L29.7114 18.3555L29.9735 36.523L35.3605 39.5431L35.2391 21.4536Z" fill="#FCFCD8"/>
<path d="M70.8206 28.3023C69.0405 30.9356 66.1111 32.4966 62.4759 32.4966C56.5047 32.4996 52.2388 28.2667 52.2388 22.2003C52.2388 16.1339 56.5047 11.75 62.5134 11.75C66.0362 11.75 68.9685 13.2755 70.7112 15.9088L67.0011 18.7702C66.0736 17.3217 64.4779 16.3679 62.5508 16.3679C59.3967 16.3679 57.173 18.8087 57.173 22.2033C57.173 25.5979 59.3622 27.8876 62.5134 27.8876C64.4779 27.8876 66.0736 26.9723 67.0011 25.4853L70.8206 28.3082V28.3023Z" fill="#FCFCD8"/>
<path d="M80.057 11.9414C86.0282 11.9414 90.2192 16.0617 90.2192 22.1636C90.2192 28.2656 86.0282 32.3474 80.057 32.3474C74.0858 32.3474 69.9321 28.2271 69.9321 22.1636C69.9321 16.1002 74.1232 11.9414 80.057 11.9414ZM80.057 27.7709C83.2111 27.7709 85.3973 25.4457 85.3973 22.1636C85.3973 18.8816 83.2082 16.5179 80.057 16.5179C76.9057 16.5179 74.754 18.8816 74.754 22.1636C74.754 25.4457 76.9432 27.7709 80.057 27.7709Z" fill="#FCFCD8"/>
<path d="M91.0029 31.7372V3.22693L95.8248 1.85547V14.8799C97.3083 13.0108 99.46 11.9415 102.13 11.9415C106.989 11.9415 109.919 14.9924 109.919 21.2484V30.191L105.097 31.7372V21.592C105.097 18.0819 103.576 16.5179 100.981 16.5179C98.014 16.5179 95.8248 18.9202 95.8248 22.2022V30.194L91.0029 31.7402V31.7372Z" fill="#FCFCD8"/>
<path d="M116.929 31.3922L109.541 13.7973L114.294 12.5117L119.375 25.4798L124.177 14.1201L129.65 12.5117L119.13 37.5386L113.369 39.3632L116.929 31.3922Z" fill="#FCFCD8"/>
<path d="M137.546 30.9862L132.473 32.4228L124.86 13.9007L129.659 12.5085L134.809 26.1698L139.928 13.2017L145.628 11.6406L137.543 30.9891L137.546 30.9862Z" fill="#FCFCD8"/>
<path d="M158.288 19.543L147.449 22.5525L149.235 26.2788L162.384 22.7746" fill="#FCFCD8"/>
<path d="M153.945 28.576C151.238 28.576 149.198 26.935 148.568 24.4557L148.542 24.2987C148.337 23.1109 148.372 21.8905 148.643 20.7175C149.311 18.5048 151.166 17.0179 153.686 17.0179C156.207 17.0179 157.99 18.5434 158.546 20.7175L161.374 23.0339L163.324 22.4978C163.324 22.4 163.33 22.3023 163.33 22.2045C163.33 17.0949 159.807 12.4414 153.611 12.4414C147.415 12.4414 143.524 16.7128 143.524 22.7792C143.524 28.8456 147.678 33.191 153.724 33.191C157.209 33.191 160.251 31.7425 162.031 29.2632L158.508 26.3248C157.506 27.6992 155.947 28.576 153.945 28.576Z" fill="#FCFCD8"/>
<path d="M158.511 26.323L158.851 25.7484L163.333 24.7383C163.333 24.7383 163.299 27.5167 162.034 29.2614L158.511 26.323Z" fill="#FCFCD8"/>
<path d="M200.508 26.6094L205.838 12.3094H208.988L214.248 26.6094H212.018L210.713 23.0244H204.013L202.688 26.6094H200.508ZM210.018 21.1244L207.388 13.8944L204.713 21.1244H210.018ZM225.296 11.8094V26.6094H223.271V23.2144C223.127 23.7777 222.927 24.2877 222.671 24.7444C222.414 25.201 222.111 25.5894 221.761 25.9094C221.411 26.2294 221.017 26.476 220.581 26.6494C220.147 26.8227 219.681 26.9094 219.181 26.9094C218.727 26.9094 218.297 26.8444 217.891 26.7144C217.484 26.5844 217.107 26.3977 216.761 26.1544C216.417 25.911 216.106 25.6177 215.826 25.2744C215.549 24.9277 215.314 24.5394 215.121 24.1094C214.927 23.6794 214.777 23.211 214.671 22.7044C214.567 22.1944 214.516 21.6577 214.516 21.0944C214.516 20.531 214.567 19.996 214.671 19.4894C214.777 18.9827 214.927 18.5144 215.121 18.0844C215.314 17.6544 215.549 17.2677 215.826 16.9244C216.106 16.5777 216.417 16.2827 216.761 16.0394C217.107 15.796 217.484 15.6094 217.891 15.4794C218.297 15.3494 218.727 15.2844 219.181 15.2844C219.681 15.2844 220.147 15.371 220.581 15.5444C221.017 15.7177 221.411 15.9644 221.761 16.2844C222.111 16.6044 222.414 16.9927 222.671 17.4494C222.927 17.9027 223.127 18.4127 223.271 18.9794V11.8094H225.296ZM223.271 21.0944C223.271 20.4644 223.192 19.901 223.036 19.4044C222.882 18.9044 222.659 18.481 222.366 18.1344C222.072 17.7877 221.716 17.5227 221.296 17.3394C220.876 17.156 220.401 17.0644 219.871 17.0644C219.331 17.0644 218.852 17.1527 218.436 17.3294C218.022 17.5027 217.676 17.7594 217.396 18.0994C217.116 18.4394 216.902 18.861 216.756 19.3644C216.612 19.8644 216.541 20.441 216.541 21.0944C216.541 21.7477 216.612 22.326 216.756 22.8294C216.902 23.3294 217.116 23.751 217.396 24.0944C217.679 24.4344 218.027 24.6927 218.441 24.8694C218.854 25.0427 219.331 25.1294 219.871 25.1294C220.401 25.1294 220.876 25.0377 221.296 24.8544C221.716 24.671 222.072 24.406 222.366 24.0594C222.659 23.7094 222.882 23.286 223.036 22.7894C223.192 22.2894 223.271 21.7244 223.271 21.0944ZM228.92 26.6094H226.895V15.5844H228.92V18.6644C229.05 18.1377 229.23 17.666 229.46 17.2494C229.693 16.8294 229.97 16.4744 230.29 16.1844C230.61 15.8944 230.97 15.6727 231.37 15.5194C231.77 15.3627 232.203 15.2844 232.67 15.2844C233.163 15.2844 233.611 15.371 234.015 15.5444C234.421 15.7144 234.778 15.9627 235.085 16.2894C235.391 16.6127 235.646 17.011 235.85 17.4844C236.053 17.9544 236.198 18.4877 236.285 19.0844C236.391 18.4944 236.558 17.966 236.785 17.4994C237.011 17.0294 237.288 16.631 237.615 16.3044C237.945 15.9744 238.321 15.7227 238.745 15.5494C239.168 15.3727 239.628 15.2844 240.125 15.2844C240.705 15.2844 241.223 15.4027 241.68 15.6394C242.14 15.876 242.528 16.2177 242.845 16.6644C243.165 17.1077 243.408 17.6494 243.575 18.2894C243.745 18.926 243.83 19.6444 243.83 20.4444V26.6094H241.805V20.4444C241.805 19.3377 241.595 18.506 241.175 17.9494C240.758 17.3927 240.126 17.1144 239.28 17.1144C238.826 17.1144 238.42 17.1944 238.06 17.3544C237.7 17.511 237.395 17.741 237.145 18.0444C236.895 18.3444 236.703 18.7144 236.57 19.1544C236.44 19.591 236.375 20.0877 236.375 20.6444V26.6094H234.35V20.4444C234.35 19.3377 234.14 18.506 233.72 17.9494C233.303 17.3927 232.671 17.1144 231.825 17.1144C231.371 17.1144 230.965 17.1944 230.605 17.3544C230.245 17.511 229.94 17.741 229.69 18.0444C229.44 18.3444 229.248 18.7144 229.115 19.1544C228.985 19.591 228.92 20.0877 228.92 20.6444V26.6094ZM247.446 14.3094H245.321V11.8094H247.446V14.3094ZM247.396 26.6094H245.371V15.5844H247.396V26.6094ZM251.029 26.6094H249.004V15.5844H251.029V18.7694C251.162 18.226 251.354 17.7394 251.604 17.3094C251.854 16.8794 252.154 16.5144 252.504 16.2144C252.854 15.9144 253.249 15.6844 253.689 15.5244C254.129 15.3644 254.606 15.2844 255.119 15.2844C255.749 15.2844 256.312 15.4027 256.809 15.6394C257.306 15.876 257.726 16.2177 258.069 16.6644C258.416 17.1077 258.679 17.6494 258.859 18.2894C259.042 18.926 259.134 19.6444 259.134 20.4444V26.6094H257.109V20.4444C257.109 19.3377 256.874 18.506 256.404 17.9494C255.934 17.3927 255.226 17.1144 254.279 17.1144C253.769 17.1144 253.312 17.1944 252.909 17.3544C252.509 17.511 252.169 17.741 251.889 18.0444C251.612 18.3444 251.399 18.7144 251.249 19.1544C251.102 19.591 251.029 20.0877 251.029 20.6444V26.6094Z" fill="#FCFCD8"/>
</svg>
