<svg width="298" height="144" viewBox="0 0 298 144" fill="none" xmlns="http://www.w3.org/2000/svg">
<path d="M91 66.7659C91 65.7837 91.0978 64.7956 91.2933 63.8249C91.4889 62.86 91.7764 61.9009 92.1445 60.9649C92.5126 60.0288 92.9612 59.1159 93.4846 58.2434C94.008 57.3652 94.6004 56.5274 95.2561 55.7474C95.9002 54.9616 96.6192 54.222 97.3899 53.546C98.1548 52.87 98.9773 52.2691 99.8342 51.7317C100.691 51.2001 101.588 50.7379 102.514 50.3681C103.44 49.9983 104.401 49.7268 105.379 49.5477C105.379 49.5477 106.04 49.4321 107.288 49.2125C107.909 49.1028 108.68 48.9756 109.583 48.8196C110.486 48.6752 111.527 48.5018 112.689 48.3227C113.856 48.1436 115.145 47.9529 116.548 47.7565C117.951 47.5658 119.464 47.3751 121.086 47.1787C121.897 47.0863 122.731 46.9938 123.593 46.9014C124.456 46.8147 125.342 46.7338 126.251 46.6471C127.159 46.572 128.085 46.4969 129.046 46.4218C130.001 46.3582 130.978 46.2947 131.979 46.2369C132.974 46.1849 133.992 46.1387 135.027 46.0982C136.068 46.0636 137.127 46.0404 138.202 46.0173C139.278 46.0058 140.37 46 141.48 46C142.59 46.0058 143.718 46.0231 144.862 46.052C146.001 46.0867 147.163 46.1271 148.336 46.1791C149.509 46.2369 150.694 46.3062 151.896 46.3871C153.093 46.4738 154.306 46.5662 155.531 46.676C156.756 46.7858 157.993 46.9129 159.241 47.0458C160.489 47.1845 161.749 47.3347 163.014 47.4965C164.279 47.664 165.556 47.8432 166.839 48.0223C168.121 48.2187 169.409 48.4152 170.709 48.6232C172.009 48.837 173.309 49.0565 174.615 49.2819C175.926 49.513 177.237 49.7499 178.56 49.9926C179.883 50.241 181.2 50.4952 182.523 50.7495C183.851 51.0037 185.18 51.2637 186.508 51.5295C187.837 51.7953 189.166 52.0553 190.5 52.3211C191.829 52.5811 193.157 52.8469 194.486 53.1126C195.814 53.3726 197.143 53.6327 198.466 53.8927C199.794 54.1469 201.111 54.4011 202.434 54.6438C203.751 54.8865 205.063 55.1234 206.374 55.3603C207.685 55.5856 208.985 55.8052 210.285 56.0189C211.585 56.2269 212.873 56.4234 214.156 56.6141C215.438 56.799 216.715 56.9781 217.98 57.1456C219.246 57.3016 220.505 57.4576 221.753 57.5963C223.001 57.7292 224.238 57.8563 225.463 57.9661C226.688 58.0759 227.902 58.1683 229.098 58.255C230.3 58.3359 231.485 58.4052 232.658 58.463C233.831 58.515 234.993 58.5555 236.132 58.5901C237.277 58.619 238.404 58.6363 239.514 58.6421C240.618 58.6421 241.717 58.6363 242.792 58.6248C243.868 58.6017 244.926 58.5786 245.967 58.5439C247.002 58.5035 248.02 58.4572 249.021 58.4052C250.016 58.3475 250.994 58.2839 251.943 58.2203C252.903 58.1452 253.835 58.0701 254.744 57.995C255.647 57.9141 256.538 57.8274 257.401 57.7408C258.264 57.6483 259.097 57.5559 259.908 57.4634C261.53 57.267 263.043 57.0763 264.446 56.8856C265.85 56.6892 267.138 56.4985 268.3 56.3194C269.467 56.1403 270.508 55.9727 271.411 55.8225C272.314 55.6723 273.079 55.5394 273.706 55.4296C274.948 55.2158 275.621 55.0945 275.621 55.0945C276.593 54.9154 277.554 54.8402 278.48 54.8634C279.406 54.8865 280.303 55.0078 281.16 55.21C282.017 55.418 282.834 55.7069 283.599 56.0825C284.369 56.4581 285.083 56.9145 285.738 57.4403C286.394 57.9661 286.986 58.567 287.51 59.2373C288.027 59.9017 288.482 60.6355 288.85 61.4213C289.218 62.2129 289.505 63.0565 289.701 63.9463C289.896 64.8361 289.994 65.7837 290 66.7659C290 66.7659 289.994 67.6326 290 69.1464C290 69.9033 290 70.8278 290 71.8794C290 72.9367 290 74.1328 290 75.4328C290 76.7328 290 78.1369 290 79.6276C290 80.3729 290 81.1356 290 81.9214C290 82.7015 290 83.4988 290 84.3135C290 85.1282 290 85.9544 290 86.7865C290 87.6243 290 88.4736 290 89.323C290 90.1781 290 91.039 290 91.8999C290 92.7666 290 93.6333 290 94.5C290 95.3551 290 96.2334 290 97.0885C290 97.9552 290 98.8161 290 99.6713C290 100.521 290 101.37 290 102.208C290 103.04 290 103.866 290 104.681C290 105.495 290 106.293 290 107.073C290 107.859 290 108.621 290 109.367C290 110.857 290 112.267 290 113.567C290 114.867 290 116.057 290 117.115C290 118.166 290 119.091 290 119.848C289.994 121.362 290 122.234 290 122.234C289.994 123.211 289.896 124.193 289.701 125.164C289.505 126.134 289.218 127.088 288.85 128.024C288.482 128.96 288.027 129.873 287.51 130.745C286.986 131.623 286.394 132.449 285.738 133.241C285.083 134.027 284.369 134.766 283.599 135.437C282.834 136.113 282.017 136.731 281.16 137.263C280.303 137.794 279.406 138.251 278.48 138.62C277.554 138.996 276.593 139.267 275.621 139.452C275.621 139.452 274.948 139.574 273.706 139.787C273.079 139.897 272.314 140.03 271.411 140.175C270.508 140.331 269.467 140.498 268.3 140.677C267.138 140.856 265.85 141.047 264.446 141.244C263.043 141.434 261.53 141.625 259.908 141.821C259.097 141.914 258.264 142.006 257.401 142.099C256.538 142.185 255.647 142.272 254.744 142.353C253.835 142.428 252.903 142.503 251.943 142.578C250.994 142.642 250.016 142.705 249.021 142.763C248.02 142.815 247.002 142.861 245.967 142.902C244.926 142.936 243.868 142.96 242.792 142.983C241.717 142.994 240.618 143 239.514 143C238.404 142.994 237.277 142.977 236.132 142.948C234.993 142.913 233.831 142.873 232.658 142.815C231.485 142.763 230.3 142.694 229.098 142.613C227.902 142.526 226.688 142.434 225.463 142.324C224.238 142.214 223.001 142.087 221.753 141.954C220.505 141.816 219.246 141.66 217.98 141.504C216.715 141.336 215.438 141.157 214.156 140.972C212.873 140.781 211.585 140.585 210.285 140.377C208.985 140.163 207.685 139.943 206.374 139.718C205.063 139.481 203.751 139.244 202.434 139.002C201.111 138.759 199.794 138.505 198.466 138.251C197.143 137.991 195.814 137.731 194.486 137.471C193.157 137.205 191.829 136.939 190.5 136.679C189.166 136.407 187.837 136.147 186.508 135.882C185.18 135.616 183.851 135.356 182.523 135.102C181.2 134.847 179.883 134.593 178.56 134.345C177.237 134.102 175.926 133.865 174.615 133.634C173.309 133.409 172.009 133.189 170.709 132.975C169.409 132.767 168.121 132.565 166.839 132.369C165.556 132.195 164.279 132.016 163.014 131.849C161.749 131.687 160.489 131.537 159.241 131.398C157.993 131.265 156.756 131.138 155.531 131.028C154.306 130.918 153.093 130.826 151.896 130.739C150.694 130.658 149.509 130.589 148.336 130.525C147.163 130.479 146.001 130.439 144.862 130.404C143.718 130.375 142.59 130.358 141.48 130.352C140.37 130.352 139.278 130.358 138.202 130.369C137.127 130.393 136.068 130.416 135.027 130.45C133.992 130.491 132.974 130.537 131.979 130.589C130.978 130.647 130.001 130.71 129.046 130.774C128.085 130.849 127.159 130.924 126.251 130.999C125.342 131.086 124.456 131.167 123.593 131.253C122.731 131.346 121.897 131.438 121.086 131.531C119.464 131.727 117.951 131.918 116.548 132.109C115.145 132.305 113.856 132.496 112.689 132.675C111.527 132.854 110.486 133.027 109.583 133.166C108.68 133.328 107.909 133.455 107.288 133.565C106.04 133.784 105.379 133.9 105.379 133.9C104.401 134.073 103.44 134.148 102.514 134.119C101.588 134.096 100.691 133.981 99.8342 133.778C98.9773 133.576 98.1548 133.276 97.3899 132.9C96.6192 132.53 95.9002 132.074 95.2561 131.548C94.6004 131.011 94.008 130.421 93.4846 129.751C92.9612 129.087 92.5126 128.353 92.1445 127.567C91.7764 126.776 91.4889 125.938 91.2933 125.042C91.0978 124.152 91 123.211 91 122.234C91 122.234 91 121.362 91 119.848C91 119.091 91 118.166 91 117.115C91 116.057 91 114.867 91 113.567C91 112.267 91 110.857 91 109.367C91 108.621 91 107.859 91 107.073C91 106.293 91 105.495 91 104.681C91 103.866 91 103.04 91 102.208C91 101.37 91 100.521 91 99.6713C91 98.8161 91 97.9552 91 97.0885C91 96.2334 91 95.3551 91 94.5C91 93.6333 91 92.7666 91 91.8999C91 91.039 91 90.1781 91 89.323C91 88.4736 91 87.6243 91 86.7865C91 85.9544 91 85.1282 91 84.3135C91 83.4988 91 82.7015 91 81.9214C91 81.1356 91 80.3729 91 79.6276C91 78.1369 91 76.7328 91 75.4328C91 74.1328 91 72.9367 91 71.8794C91 70.8278 91 69.9033 91 69.1464C91 67.6326 91 66.7659 91 66.7659Z" fill="#24292B" fill-opacity="0.11"/>
<path d="M91.2812 66.7083C91.287 65.7434 91.3848 64.7785 91.5746 63.8309C91.7644 62.8775 92.0462 61.9357 92.4085 61.0228C92.7709 60.1041 93.2137 59.2085 93.7199 58.3592C94.2317 57.4983 94.8184 56.6778 95.4568 55.9093C96.0952 55.1409 96.7969 54.4128 97.5503 53.7542C98.298 53.0955 99.1032 52.4946 99.9429 51.9746C100.783 51.4545 101.663 51.0039 102.571 50.6398C103.48 50.2816 104.418 50.0101 105.372 49.8367C105.372 49.8367 106.039 49.7212 107.288 49.4958C107.909 49.386 108.679 49.2647 109.582 49.1087C110.485 48.9642 111.526 48.7909 112.688 48.6118C113.856 48.4269 115.144 48.242 116.547 48.0456C117.951 47.8549 119.463 47.6584 121.085 47.4678C121.896 47.3695 122.73 47.2771 123.593 47.1846C124.456 47.1038 125.341 47.0229 126.25 46.9362C127.159 46.8553 128.085 46.7802 129.045 46.7109C130 46.6473 130.978 46.578 131.978 46.5202C132.973 46.474 133.991 46.422 135.027 46.3815C136.068 46.3468 137.126 46.3237 138.202 46.3006C139.277 46.2891 140.37 46.2891 141.48 46.2891C142.59 46.2948 143.717 46.3064 144.862 46.3411C146.001 46.3757 147.162 46.4162 148.336 46.4624C149.509 46.526 150.694 46.5895 151.896 46.6762C153.092 46.7629 154.306 46.8495 155.531 46.9651C156.756 47.0749 157.992 47.202 159.24 47.3291C160.488 47.4735 161.748 47.6238 163.013 47.7798C164.279 47.9473 165.555 48.1322 166.838 48.3056C168.121 48.502 169.409 48.6985 170.709 48.9122C172.009 49.1203 173.308 49.3456 174.614 49.5652C175.925 49.7963 177.237 50.0389 178.559 50.2758C179.882 50.5301 181.199 50.7785 182.522 51.0327C183.851 51.2928 185.179 51.5528 186.508 51.8128C187.837 52.0843 189.165 52.3328 190.494 52.5986C191.828 52.8644 193.157 53.1359 194.485 53.3959C195.814 53.6617 197.142 53.9217 198.465 54.1759C199.794 54.4302 201.111 54.6902 202.434 54.9271C203.751 55.1755 205.062 55.4066 206.373 55.6435C207.685 55.8747 208.985 56.0884 210.284 56.308C211.584 56.5102 212.873 56.7067 214.155 56.8974C215.438 57.088 216.715 57.2614 217.98 57.4289C219.245 57.5907 220.505 57.7467 221.753 57.8796C223.001 58.0183 224.237 58.1454 225.462 58.2552C226.688 58.3592 227.901 58.4574 229.097 58.5441C230.299 58.6192 231.484 58.6943 232.658 58.7463C233.831 58.8041 234.993 58.8445 236.131 58.8792C237.276 58.9023 238.403 58.9254 239.513 58.9312C240.618 58.9312 241.716 58.9196 242.792 58.9081C243.867 58.885 244.925 58.8619 245.966 58.8272C247.002 58.7867 248.02 58.7463 249.02 58.6885C250.015 58.6307 250.993 58.573 251.942 58.5094C252.903 58.4285 253.834 58.3534 254.743 58.2841C255.646 58.2032 256.538 58.1165 257.4 58.0241C258.263 57.9316 259.097 57.8392 259.908 57.7525C261.53 57.5503 263.042 57.3654 264.446 57.1747C265.849 56.9782 267.137 56.7818 268.299 56.6085C269.467 56.4293 270.508 56.2618 271.411 56.1116C272.314 55.9613 273.079 55.8227 273.706 55.7129C274.948 55.5049 275.621 55.3835 275.621 55.3835C276.576 55.2102 277.513 55.1351 278.422 55.1582C279.331 55.1755 280.21 55.2969 281.05 55.4991C281.89 55.7013 282.689 55.9902 283.443 56.3542C284.19 56.7182 284.892 57.1689 285.536 57.6832C286.175 58.1974 286.756 58.7867 287.268 59.4454C287.779 60.0926 288.222 60.8148 288.585 61.5833C288.947 62.3575 289.229 63.1837 289.419 64.062C289.608 64.9345 289.712 65.8532 289.712 66.8181C289.712 66.8181 289.712 67.6848 289.712 69.1986C289.712 69.9555 289.712 70.88 289.712 71.9315C289.706 72.9947 289.712 74.1849 289.712 75.4792C289.712 76.785 289.706 78.1948 289.712 79.6798C289.712 80.4251 289.706 81.1936 289.706 81.9794C289.706 82.7594 289.712 83.551 289.712 84.3657C289.712 85.1804 289.712 86.0066 289.706 86.8444C289.706 87.6822 289.712 88.5258 289.712 89.3751C289.712 90.2303 289.706 91.097 289.712 91.9521C289.712 92.8188 289.712 93.6855 289.706 94.5579C289.712 95.4189 289.712 96.274 289.712 97.1407C289.706 98.0132 289.712 98.8683 289.712 99.7234C289.712 100.573 289.706 101.428 289.706 102.266C289.712 103.092 289.712 103.918 289.712 104.733C289.712 105.548 289.706 106.351 289.706 107.131C289.706 107.917 289.712 108.673 289.712 109.419C289.706 110.915 289.712 112.319 289.712 113.619C289.712 114.919 289.706 116.115 289.712 117.167C289.712 118.219 289.712 119.143 289.712 119.9C289.712 121.42 289.712 122.286 289.712 122.286C289.712 123.245 289.608 124.21 289.419 125.164C289.229 126.111 288.947 127.047 288.585 127.966C288.222 128.885 287.779 129.774 287.268 130.635C286.756 131.485 286.175 132.305 285.536 133.079C284.892 133.848 284.19 134.57 283.443 135.235C282.689 135.888 281.89 136.494 281.05 137.02C280.21 137.54 279.331 137.991 278.422 138.355C277.513 138.713 276.576 138.984 275.621 139.158C275.621 139.158 274.948 139.279 273.706 139.499C273.079 139.609 272.314 139.736 271.411 139.886C270.508 140.036 269.467 140.204 268.299 140.383C267.137 140.568 265.849 140.753 264.446 140.949C263.042 141.14 261.53 141.336 259.908 141.527C259.097 141.625 258.263 141.717 257.4 141.81C256.538 141.891 255.646 141.977 254.743 142.058C253.834 142.139 252.903 142.214 251.942 142.284C250.993 142.347 250.015 142.417 249.02 142.474C248.02 142.521 247.002 142.573 245.966 142.613C244.925 142.648 243.867 142.671 242.792 142.694C241.716 142.705 240.618 142.705 239.513 142.705C238.403 142.7 237.276 142.688 236.131 142.653C234.993 142.619 233.831 142.578 232.658 142.532C231.484 142.469 230.299 142.405 229.097 142.318C227.901 142.232 226.688 142.145 225.462 142.029C224.237 141.92 223.001 141.793 221.753 141.665C220.505 141.521 219.245 141.365 217.98 141.215C216.715 141.047 215.438 140.862 214.155 140.683C212.873 140.493 211.584 140.296 210.284 140.082C208.985 139.874 207.685 139.649 206.373 139.429C205.062 139.193 203.751 138.95 202.434 138.713C201.111 138.464 199.794 138.216 198.465 137.962C197.142 137.696 195.814 137.436 194.485 137.182C193.157 136.91 191.828 136.65 190.494 136.384C189.165 136.119 187.837 135.853 186.508 135.593C185.179 135.321 183.851 135.061 182.522 134.813C181.199 134.559 179.882 134.299 178.559 134.056C177.237 133.807 175.925 133.576 174.614 133.345C173.308 133.114 172.009 132.9 170.709 132.681C169.409 132.479 168.121 132.282 166.838 132.086C165.555 131.901 164.279 131.727 163.013 131.56C161.748 131.392 160.488 131.242 159.24 131.109C157.992 130.971 156.756 130.843 155.531 130.734C154.306 130.63 153.092 130.531 151.896 130.445C150.694 130.37 149.509 130.294 148.336 130.242C147.162 130.185 146.001 130.144 144.862 130.11C143.717 130.086 142.59 130.063 141.48 130.058C140.37 130.058 139.277 130.069 138.202 130.081C137.126 130.104 136.068 130.127 135.027 130.162C133.991 130.202 132.973 130.242 131.978 130.3C130.978 130.358 130 130.416 129.045 130.479C128.085 130.56 127.159 130.635 126.25 130.705C125.341 130.791 124.456 130.872 123.593 130.965C122.73 131.057 121.896 131.15 121.085 131.236C119.463 131.439 117.951 131.623 116.547 131.814C115.144 132.011 113.856 132.207 112.688 132.38C111.526 132.559 110.485 132.733 109.582 132.877C108.679 133.033 107.909 133.166 107.288 133.276C106.039 133.49 105.372 133.605 105.372 133.605C104.418 133.779 103.48 133.854 102.571 133.831C101.663 133.813 100.783 133.692 99.9429 133.49C99.1032 133.287 98.298 132.993 97.5503 132.635C96.7969 132.265 96.0952 131.82 95.4568 131.306C94.8184 130.786 94.2317 130.196 93.7199 129.549C93.2137 128.89 92.7709 128.174 92.4085 127.406C92.0462 126.625 91.7644 125.805 91.5746 124.933C91.3848 124.054 91.2812 123.136 91.2812 122.176C91.2812 122.176 91.287 121.31 91.2812 119.79C91.2812 119.033 91.287 118.109 91.2812 117.057C91.287 116 91.2812 114.804 91.2812 113.504C91.2812 112.21 91.2812 110.8 91.2812 109.309C91.2812 108.564 91.287 107.801 91.287 107.015C91.287 106.235 91.2812 105.438 91.2812 104.623C91.2812 103.808 91.2812 102.982 91.287 102.15C91.287 101.312 91.2812 100.463 91.287 99.6136C91.2812 98.7585 91.287 97.8976 91.2812 97.0309C91.2812 96.1758 91.2812 95.3091 91.287 94.4424C91.2812 93.5757 91.2812 92.709 91.2812 91.8423C91.287 90.9814 91.2812 90.1205 91.287 89.2654C91.2812 88.416 91.287 87.5666 91.287 86.7288C91.2812 85.8968 91.2812 85.0706 91.2812 84.2559C91.2812 83.4412 91.287 82.6438 91.287 81.8638C91.287 81.078 91.2812 80.3153 91.2812 79.57C91.2812 78.0793 91.2812 76.6752 91.2812 75.3694C91.2812 74.0694 91.287 72.8791 91.2812 71.8218C91.287 70.7702 91.2812 69.8457 91.2812 69.0888C91.287 67.575 91.2812 66.7083 91.2812 66.7083Z" stroke="white" stroke-opacity="0.09"/>
<g filter="url(#filter0_b_6908_140601)">
<path d="M44 47.5518C44 46.5797 44.0983 45.6019 44.2948 44.6412C44.4913 43.6862 44.7803 42.737 45.1503 41.8106C45.5202 40.8842 45.9711 39.9807 46.4971 39.1172C47.0231 38.248 47.6185 37.4189 48.2775 36.6469C48.9249 35.8692 49.6474 35.1372 50.422 34.4682C51.1908 33.7991 52.0173 33.2044 52.8786 32.6726C53.7399 32.1465 54.6416 31.6891 55.5723 31.3231C56.5029 30.9571 57.4682 30.6883 58.4509 30.5111C58.4509 30.5111 59.1156 30.3967 60.3699 30.1794C60.9942 30.0708 61.7688 29.945 62.6763 29.7906C63.5838 29.6476 64.6301 29.4761 65.7977 29.2988C66.9711 29.1215 68.2659 28.9328 69.6763 28.7384C71.0867 28.5497 72.6069 28.361 74.237 28.1665C75.052 28.0751 75.8902 27.9836 76.7572 27.8921C77.6243 27.8063 78.5145 27.7262 79.4277 27.6405C80.341 27.5661 81.2717 27.4918 82.237 27.4174C83.1965 27.3545 84.1792 27.2916 85.185 27.2345C86.185 27.183 87.2081 27.1372 88.2486 27.0972C89.2948 27.0629 90.3584 27.04 91.4393 27.0172C92.5202 27.0057 93.6185 27 94.7341 27C95.8497 27.0057 96.9827 27.0229 98.1329 27.0515C99.2775 27.0858 100.445 27.1258 101.624 27.1773C102.803 27.2345 103.994 27.3031 105.202 27.3831C106.405 27.4689 107.624 27.5604 108.855 27.669C110.087 27.7777 111.329 27.9035 112.584 28.035C113.838 28.1723 115.104 28.3209 116.376 28.4811C117.647 28.6469 118.931 28.8242 120.22 29.0014C121.509 29.1959 122.803 29.3903 124.11 29.5961C125.416 29.8077 126.723 30.025 128.035 30.248C129.353 30.4768 130.671 30.7112 132 30.9514C133.329 31.1973 134.653 31.4489 135.983 31.7005C137.318 31.9521 138.653 32.2094 139.988 32.4725C141.324 32.7355 142.659 32.9929 144 33.2559C145.335 33.5132 146.671 33.7763 148.006 34.0393C149.341 34.2966 150.676 34.554 152.006 34.8113C153.341 35.0629 154.665 35.3145 155.994 35.5547C157.318 35.7949 158.636 36.0293 159.954 36.2638C161.272 36.4868 162.578 36.7041 163.884 36.9157C165.191 37.1215 166.486 37.3159 167.775 37.5046C169.064 37.6876 170.347 37.8649 171.618 38.0307C172.89 38.1851 174.156 38.3395 175.41 38.4768C176.665 38.6083 177.908 38.7341 179.139 38.8427C180.37 38.9514 181.59 39.0429 182.792 39.1287C184 39.2087 185.191 39.2773 186.37 39.3345C187.549 39.386 188.717 39.426 189.861 39.4603C191.012 39.4889 192.145 39.5061 193.26 39.5118C194.37 39.5118 195.474 39.5061 196.555 39.4946C197.636 39.4718 198.699 39.4489 199.746 39.4146C200.786 39.3746 201.809 39.3288 202.815 39.2773C203.815 39.2202 204.798 39.1573 205.751 39.0944C206.717 39.02 207.653 38.9457 208.566 38.8713C209.474 38.7913 210.37 38.7055 211.237 38.6197C212.104 38.5282 212.942 38.4367 213.757 38.3452C215.387 38.1508 216.908 37.9621 218.318 37.7734C219.728 37.579 221.023 37.3903 222.191 37.213C223.364 37.0357 224.41 36.8699 225.318 36.7212C226.225 36.5726 226.994 36.441 227.624 36.3324C228.873 36.1208 229.549 36.0007 229.549 36.0007C230.526 35.8234 231.491 35.7491 232.422 35.772C233.353 35.7949 234.254 35.9149 235.116 36.1151C235.977 36.3209 236.798 36.6069 237.566 36.9786C238.341 37.3503 239.058 37.802 239.717 38.3224C240.376 38.8427 240.971 39.4375 241.497 40.1008C242.017 40.7584 242.474 41.4846 242.844 42.2623C243.214 43.0457 243.503 43.8806 243.699 44.7613C243.896 45.6419 243.994 46.5797 244 47.5518C244 47.5518 243.994 48.4096 244 49.9078C244 50.6569 244 51.5718 244 52.6126C244 53.659 244 54.8427 244 56.1294C244 57.416 244 58.8056 244 60.2809C244 61.0186 244 61.7734 244 62.5511C244 63.3231 244 64.1122 244 64.9185C244 65.7248 244 66.5425 244 67.366C244 68.1951 244 69.0357 244 69.8763C244 70.7227 244 71.5747 244 72.4267C244 73.2845 244 74.1422 244 75C244 75.8463 244 76.7155 244 77.5618C244 78.4196 244 79.2716 244 80.1179C244 80.9585 244 81.7991 244 82.6283C244 83.4517 244 84.2695 244 85.0758C244 85.8821 244 86.6712 244 87.4432C244 88.2209 244 88.9757 244 89.7134C244 91.1887 244 92.584 244 93.8706C244 95.1573 244 96.3352 244 97.3817C244 98.4224 244 99.3374 244 100.086C243.994 101.585 244 102.448 244 102.448C243.994 103.415 243.896 104.387 243.699 105.347C243.503 106.308 243.214 107.252 242.844 108.178C242.474 109.104 242.017 110.008 241.497 110.871C240.971 111.741 240.376 112.558 239.717 113.342C239.058 114.119 238.341 114.851 237.566 115.515C236.798 116.184 235.977 116.796 235.116 117.322C234.254 117.848 233.353 118.299 232.422 118.665C231.491 119.037 230.526 119.306 229.549 119.489C229.549 119.489 228.873 119.609 227.624 119.821C226.994 119.929 226.225 120.061 225.318 120.204C224.41 120.358 223.364 120.524 222.191 120.701C221.023 120.878 219.728 121.067 218.318 121.262C216.908 121.45 215.387 121.639 213.757 121.833C212.942 121.925 212.104 122.016 211.237 122.108C210.37 122.194 209.474 122.279 208.566 122.36C207.653 122.434 206.717 122.508 205.751 122.583C204.798 122.645 203.815 122.708 202.815 122.766C201.809 122.817 200.786 122.863 199.746 122.903C198.699 122.937 197.636 122.96 196.555 122.983C195.474 122.994 194.37 123 193.26 123C192.145 122.994 191.012 122.977 189.861 122.949C188.717 122.914 187.549 122.874 186.37 122.817C185.191 122.766 184 122.697 182.792 122.617C181.59 122.531 180.37 122.44 179.139 122.331C177.908 122.222 176.665 122.096 175.41 121.965C174.156 121.828 172.89 121.673 171.618 121.519C170.347 121.353 169.064 121.176 167.775 120.993C166.486 120.804 165.191 120.61 163.884 120.404C162.578 120.192 161.272 119.975 159.954 119.752C158.636 119.518 157.318 119.283 155.994 119.043C154.665 118.803 153.341 118.551 152.006 118.299C150.676 118.042 149.341 117.785 148.006 117.528C146.671 117.264 145.335 117.001 144 116.744C142.659 116.475 141.324 116.218 139.988 115.955C138.653 115.692 137.318 115.435 135.983 115.183C134.653 114.931 133.329 114.68 132 114.434C130.671 114.194 129.353 113.959 128.035 113.731C126.723 113.507 125.416 113.29 124.11 113.079C122.803 112.873 121.509 112.673 120.22 112.478C118.931 112.307 117.647 112.129 116.376 111.964C115.104 111.803 113.838 111.655 112.584 111.518C111.329 111.386 110.087 111.26 108.855 111.152C107.624 111.043 106.405 110.951 105.202 110.866C103.994 110.786 102.803 110.717 101.624 110.654C100.445 110.608 99.2775 110.568 98.1329 110.534C96.9827 110.505 95.8497 110.488 94.7341 110.482C93.6185 110.482 92.5202 110.488 91.4393 110.5C90.3584 110.523 89.2948 110.545 88.2486 110.58C87.2081 110.62 86.185 110.665 85.185 110.717C84.1792 110.774 83.1965 110.837 82.237 110.9C81.2717 110.974 80.341 111.049 79.4277 111.123C78.5145 111.209 77.6243 111.289 76.7572 111.375C75.8902 111.466 75.052 111.558 74.237 111.649C72.6069 111.843 71.0867 112.032 69.6763 112.221C68.2659 112.415 66.9711 112.604 65.7977 112.781C64.6301 112.959 63.5838 113.13 62.6763 113.267C61.7688 113.427 60.9942 113.553 60.3699 113.662C59.1156 113.879 58.4509 113.994 58.4509 113.994C57.4682 114.165 56.5029 114.239 55.5723 114.211C54.6416 114.188 53.7399 114.074 52.8786 113.873C52.0173 113.673 51.1908 113.376 50.422 113.004C49.6474 112.638 48.9249 112.187 48.2775 111.666C47.6185 111.134 47.0231 110.551 46.4971 109.888C45.9711 109.23 45.5202 108.504 45.1503 107.726C44.7803 106.943 44.4913 106.114 44.2948 105.227C44.0983 104.347 44 103.415 44 102.448C44 102.448 44 101.585 44 100.086C44 99.3374 44 98.4224 44 97.3817C44 96.3352 44 95.1573 44 93.8706C44 92.584 44 91.1887 44 89.7134C44 88.9757 44 88.2209 44 87.4432C44 86.6712 44 85.8821 44 85.0758C44 84.2695 44 83.4517 44 82.6283C44 81.7991 44 80.9585 44 80.1179C44 79.2716 44 78.4196 44 77.5618C44 76.7155 44 75.8463 44 75C44 74.1422 44 73.2845 44 72.4267C44 71.5747 44 70.7227 44 69.8763C44 69.0357 44 68.1951 44 67.366C44 66.5425 44 65.7248 44 64.9185C44 64.1122 44 63.3231 44 62.5511C44 61.7734 44 61.0186 44 60.2809C44 58.8056 44 57.416 44 56.1294C44 54.8427 44 53.659 44 52.6126C44 51.5718 44 50.6569 44 49.9078C44 48.4096 44 47.5518 44 47.5518Z" fill="#24292B" fill-opacity="0.4"/>
<path d="M44.2832 47.4939C44.289 46.5389 44.3872 45.5839 44.578 44.6461C44.7688 43.7026 45.052 42.7705 45.4162 41.867C45.7803 40.9578 46.2254 40.0714 46.7341 39.2308C47.2485 38.3788 47.8381 37.5668 48.4797 36.8062C49.1214 36.0457 49.8266 35.3252 50.5838 34.6733C51.3352 34.0214 52.1445 33.4267 52.9884 32.912C53.8323 32.3974 54.7167 31.9513 55.63 31.5911C56.5433 31.2366 57.4855 30.9678 58.4451 30.7962C58.4451 30.7962 59.1156 30.6819 60.3699 30.4589C60.9942 30.3502 61.7688 30.2301 62.6763 30.0757C63.5838 29.9328 64.63 29.7612 65.7977 29.5839C66.9711 29.401 68.2659 29.218 69.6763 29.0235C71.0867 28.8348 72.6069 28.6404 74.237 28.4517C75.052 28.3545 75.8901 28.263 76.7572 28.1715C77.6242 28.0914 78.5144 28.0114 79.4277 27.9256C80.341 27.8456 81.2716 27.7712 82.237 27.7026C83.1965 27.6397 84.1792 27.5711 85.1849 27.5139C86.1849 27.4681 87.2081 27.4167 88.2485 27.3767C89.2948 27.3423 90.3584 27.3195 91.4393 27.2966C92.5202 27.2852 93.6185 27.2852 94.7341 27.2852C95.8497 27.2909 96.9826 27.3023 98.1329 27.3366C99.2774 27.3709 100.445 27.411 101.624 27.4567C102.803 27.5196 103.994 27.5825 105.202 27.6683C106.405 27.7541 107.624 27.8398 108.855 27.9542C110.087 28.0629 111.329 28.1887 112.584 28.3145C113.838 28.4574 115.104 28.6061 116.376 28.7605C117.647 28.9263 118.931 29.1093 120.22 29.2809C121.509 29.4753 122.803 29.6697 124.11 29.8813C125.416 30.0872 126.723 30.3102 128.035 30.5275C129.353 30.7562 130.67 30.9964 132 31.2308C133.329 31.4824 134.653 31.7283 135.983 31.9799C137.318 32.2373 138.653 32.4946 139.988 32.7519C141.324 33.0207 142.659 33.2666 143.994 33.5296C145.335 33.7927 146.67 34.0614 148.006 34.3188C149.341 34.5818 150.676 34.8391 152.006 35.0907C153.341 35.3423 154.665 35.5997 155.994 35.8341C157.318 36.08 158.636 36.3087 159.954 36.5432C161.272 36.7719 162.578 36.9835 163.884 37.2008C165.191 37.401 166.486 37.5954 167.775 37.7841C169.064 37.9728 170.347 38.1443 171.618 38.3102C172.89 38.4703 174.156 38.6247 175.41 38.7562C176.665 38.8934 177.907 39.0193 179.139 39.1279C180.37 39.2308 181.59 39.328 182.792 39.4138C184 39.4882 185.191 39.5625 186.37 39.614C187.549 39.6711 188.717 39.7112 189.861 39.7455C191.012 39.7684 192.144 39.7912 193.26 39.797C194.37 39.797 195.474 39.7855 196.555 39.7741C197.636 39.7512 198.699 39.7283 199.746 39.694C200.786 39.654 201.809 39.614 202.815 39.5568C203.815 39.4996 204.798 39.4424 205.751 39.3795C206.717 39.2995 207.653 39.2251 208.566 39.1565C209.474 39.0764 210.37 38.9907 211.237 38.8992C212.104 38.8077 212.942 38.7162 213.757 38.6304C215.387 38.4303 216.907 38.2473 218.318 38.0586C219.728 37.8641 221.023 37.6697 222.191 37.4982C223.364 37.3209 224.41 37.1551 225.318 37.0064C226.225 36.8577 226.994 36.7205 227.624 36.6118C228.873 36.406 229.549 36.2859 229.549 36.2859C230.509 36.1143 231.451 36.04 232.364 36.0629C233.277 36.08 234.162 36.2001 235.006 36.4002C235.85 36.6004 236.653 36.8863 237.41 37.2466C238.162 37.6068 238.867 38.0528 239.514 38.5618C240.156 39.0707 240.74 39.654 241.254 40.3059C241.769 40.9463 242.214 41.6611 242.578 42.4217C242.942 43.1879 243.225 44.0057 243.416 44.8749C243.607 45.7383 243.711 46.6476 243.711 47.6025C243.711 47.6025 243.711 48.4603 243.711 49.9585C243.711 50.7076 243.711 51.6225 243.711 52.6633C243.705 53.7155 243.711 54.8935 243.711 56.1744C243.711 57.4667 243.705 58.862 243.711 60.3316C243.711 61.0693 243.705 61.8298 243.705 62.6075C243.705 63.3795 243.711 64.1629 243.711 64.9692C243.711 65.7755 243.711 66.5932 243.705 67.4224C243.705 68.2516 243.711 69.0864 243.711 69.927C243.711 70.7734 243.705 71.6311 243.711 72.4774C243.711 73.3352 243.711 74.193 243.705 75.0564C243.711 75.9085 243.711 76.7548 243.711 77.6125C243.705 78.476 243.711 79.3223 243.711 80.1687C243.711 81.0093 243.705 81.8556 243.705 82.6847C243.711 83.5025 243.711 84.3202 243.711 85.1265C243.711 85.9328 243.705 86.7276 243.705 87.4996C243.705 88.2773 243.711 89.0264 243.711 89.7641C243.705 91.2451 243.711 92.6347 243.711 93.9213C243.711 95.208 243.705 96.3917 243.711 97.4324C243.711 98.4732 243.711 99.3881 243.711 100.137C243.711 101.641 243.711 102.499 243.711 102.499C243.711 103.448 243.607 104.403 243.416 105.347C243.225 106.284 242.942 107.211 242.578 108.12C242.214 109.029 241.769 109.91 241.254 110.762C240.74 111.603 240.156 112.415 239.514 113.181C238.867 113.941 238.162 114.656 237.41 115.314C236.653 115.96 235.85 116.56 235.006 117.081C234.162 117.595 233.277 118.041 232.364 118.402C231.451 118.756 230.509 119.025 229.549 119.197C229.549 119.197 228.873 119.317 227.624 119.534C226.994 119.643 226.225 119.768 225.318 119.917C224.41 120.066 223.364 120.232 222.191 120.409C221.023 120.592 219.728 120.775 218.318 120.969C216.907 121.158 215.387 121.352 213.757 121.541C212.942 121.638 212.104 121.73 211.237 121.821C210.37 121.901 209.474 121.987 208.566 122.067C207.653 122.147 206.717 122.222 205.751 122.29C204.798 122.353 203.815 122.422 202.815 122.479C201.809 122.525 200.786 122.576 199.746 122.616C198.699 122.65 197.636 122.673 196.555 122.696C195.474 122.708 194.37 122.708 193.26 122.708C192.144 122.702 191.012 122.69 189.861 122.656C188.717 122.622 187.549 122.582 186.37 122.536C185.191 122.473 184 122.41 182.792 122.324C181.59 122.239 180.37 122.153 179.139 122.039C177.907 121.93 176.665 121.804 175.41 121.678C174.156 121.535 172.89 121.381 171.618 121.232C170.347 121.066 169.064 120.883 167.775 120.706C166.486 120.517 165.191 120.323 163.884 120.111C162.578 119.906 161.272 119.683 159.954 119.465C158.636 119.231 157.318 118.991 155.994 118.756C154.665 118.51 153.341 118.264 152.006 118.013C150.676 117.75 149.341 117.492 148.006 117.241C146.67 116.972 145.335 116.715 143.994 116.452C142.659 116.189 141.324 115.926 139.988 115.668C138.653 115.4 137.318 115.142 135.983 114.896C134.653 114.645 133.329 114.387 132 114.147C130.67 113.901 129.353 113.673 128.035 113.444C126.723 113.215 125.416 113.004 124.11 112.786C122.803 112.586 121.509 112.392 120.22 112.197C118.931 112.014 117.647 111.843 116.376 111.677C115.104 111.511 113.838 111.362 112.584 111.231C111.329 111.094 110.087 110.968 108.855 110.859C107.624 110.756 106.405 110.659 105.202 110.573C103.994 110.499 102.803 110.425 101.624 110.373C100.445 110.316 99.2774 110.276 98.1329 110.242C96.9826 110.219 95.8497 110.196 94.7341 110.19C93.6185 110.19 92.5202 110.202 91.4393 110.213C90.3584 110.236 89.2948 110.259 88.2485 110.293C87.2081 110.333 86.1849 110.373 85.1849 110.43C84.1792 110.487 83.1965 110.545 82.237 110.608C81.2716 110.688 80.341 110.762 79.4277 110.831C78.5144 110.916 77.6242 110.996 76.7572 111.088C75.8901 111.179 75.052 111.271 74.237 111.357C72.6069 111.557 71.0867 111.74 69.6763 111.928C68.2659 112.123 66.9711 112.317 65.7977 112.489C64.63 112.666 63.5838 112.838 62.6763 112.981C61.7688 113.135 60.9942 113.267 60.3699 113.375C59.1156 113.587 58.4451 113.701 58.4451 113.701C57.4855 113.873 56.5433 113.947 55.63 113.924C54.7167 113.907 53.8323 113.787 52.9884 113.587C52.1445 113.387 51.3352 113.095 50.5838 112.74C49.8266 112.375 49.1214 111.934 48.4797 111.425C47.8381 110.911 47.2485 110.327 46.7341 109.687C46.2254 109.035 45.7803 108.326 45.4162 107.565C45.052 106.793 44.7688 105.981 44.578 105.118C44.3872 104.249 44.2832 103.339 44.2832 102.39C44.2832 102.39 44.289 101.532 44.2832 100.029C44.2832 99.2794 44.289 98.3645 44.2832 97.3238C44.289 96.2773 44.2832 95.0936 44.2832 93.807C44.2832 92.526 44.2832 91.1308 44.2832 89.6554C44.2832 88.9178 44.289 88.1629 44.289 87.3852C44.289 86.6133 44.2832 85.8241 44.2832 85.0178C44.2832 84.2115 44.2832 83.3938 44.289 82.5704C44.289 81.7412 44.2832 80.9006 44.289 80.06C44.2832 79.2137 44.289 78.3616 44.2832 77.5039C44.2832 76.6576 44.2832 75.7998 44.289 74.9421C44.2832 74.0843 44.2832 73.2265 44.2832 72.3688C44.289 71.5168 44.2832 70.6647 44.289 69.8184C44.2832 68.9778 44.289 68.1372 44.289 67.308C44.2832 66.4846 44.2832 65.6669 44.2832 64.8606C44.2832 64.0543 44.289 63.2651 44.289 62.4932C44.289 61.7155 44.2832 60.9606 44.2832 60.223C44.2832 58.7476 44.2832 57.3581 44.2832 56.0657C44.2832 54.7791 44.289 53.6011 44.2832 52.5546C44.289 51.5139 44.2832 50.599 44.2832 49.8498C44.289 48.3516 44.2832 47.4939 44.2832 47.4939Z" stroke="white" stroke-opacity="0.09"/>
</g>
<path d="M1 24.7659C1 23.7837 1.09777 22.7956 1.29332 21.8249C1.48887 20.86 1.77645 19.9009 2.14454 18.9649C2.51263 18.0288 2.96124 17.1159 3.48462 16.2434C4.00801 15.3652 4.6004 14.5274 5.25607 13.7474C5.90023 12.9616 6.61916 12.222 7.38986 11.546C8.1548 10.87 8.97725 10.2691 9.83422 9.73171C10.6912 9.20014 11.5884 8.73791 12.5144 8.36812C13.4404 7.99833 14.4009 7.72677 15.3786 7.54765C15.3786 7.54765 16.04 7.43209 17.2881 7.21253C17.9092 7.10275 18.6799 6.97564 19.5829 6.81963C20.4859 6.67518 21.5269 6.50185 22.6887 6.32273C23.8562 6.14361 25.1446 5.95294 26.5479 5.75649C27.9513 5.56582 29.4639 5.37515 31.0858 5.1787C31.8968 5.08625 32.7307 4.9938 33.5934 4.90136C34.4562 4.81469 35.3419 4.7338 36.2506 4.64713C37.1593 4.57202 38.0853 4.4969 39.0458 4.42179C40.0006 4.35823 40.9783 4.29467 41.979 4.2369C42.974 4.18489 43.9921 4.13867 45.0273 4.09822C46.0683 4.06356 47.1266 4.04045 48.2021 4.01733C49.2776 4.00578 50.3704 4 51.4804 4C52.5905 4.00578 53.7177 4.02311 54.8623 4.052C56.0011 4.08667 57.1629 4.12711 58.3362 4.17912C59.5095 4.2369 60.6942 4.30623 61.8963 4.38712C63.0926 4.47379 64.3062 4.56624 65.5312 4.67602C66.7563 4.7858 67.9928 4.91291 69.2409 5.04581C70.489 5.18448 71.7485 5.3347 73.0138 5.49649C74.2792 5.66405 75.556 5.84316 76.8386 6.02228C78.1211 6.21873 79.4095 6.41518 80.7093 6.62318C82.0091 6.83697 83.3089 7.05653 84.6145 7.28187C85.9258 7.51298 87.2372 7.74988 88.56 7.99255C89.8828 8.241 91.1999 8.49523 92.5228 8.74946C93.8513 9.00369 95.1799 9.2637 96.5085 9.52949C97.8371 9.79527 99.1657 10.0553 100.5 10.3211C101.829 10.5811 103.157 10.8469 104.486 11.1126C105.814 11.3726 107.143 11.6327 108.466 11.8927C109.794 12.1469 111.111 12.4011 112.434 12.6438C113.751 12.8865 115.063 13.1234 116.374 13.3603C117.685 13.5856 118.985 13.8052 120.285 14.0189C121.585 14.2269 122.873 14.4234 124.156 14.6141C125.438 14.799 126.715 14.9781 127.98 15.1456C129.246 15.3016 130.505 15.4576 131.753 15.5963C133.001 15.7292 134.238 15.8563 135.463 15.9661C136.688 16.0759 137.902 16.1683 139.098 16.255C140.3 16.3359 141.485 16.4052 142.658 16.463C143.831 16.515 144.993 16.5555 146.132 16.5901C147.277 16.619 148.404 16.6363 149.514 16.6421C150.618 16.6421 151.717 16.6363 152.792 16.6248C153.868 16.6017 154.926 16.5786 155.967 16.5439C157.002 16.5035 158.02 16.4572 159.021 16.4052C160.016 16.3475 160.994 16.2839 161.943 16.2203C162.903 16.1452 163.835 16.0701 164.744 15.995C165.647 15.9141 166.538 15.8274 167.401 15.7408C168.264 15.6483 169.097 15.5559 169.908 15.4634C171.53 15.267 173.043 15.0763 174.446 14.8856C175.85 14.6892 177.138 14.4985 178.3 14.3194C179.467 14.1403 180.508 13.9727 181.411 13.8225C182.314 13.6723 183.079 13.5394 183.706 13.4296C184.948 13.2158 185.621 13.0945 185.621 13.0945C186.593 12.9154 187.554 12.8402 188.48 12.8634C189.406 12.8865 190.303 13.0078 191.16 13.21C192.017 13.418 192.834 13.7069 193.599 14.0825C194.369 14.4581 195.083 14.9145 195.738 15.4403C196.394 15.9661 196.986 16.567 197.51 17.2373C198.027 17.9017 198.482 18.6355 198.85 19.4213C199.218 20.2129 199.505 21.0565 199.701 21.9463C199.896 22.8361 199.994 23.7837 200 24.7659C200 24.7659 199.994 25.6326 200 27.1464C200 27.9033 200 28.8278 200 29.8794C200 30.9367 200 32.1328 200 33.4328C200 34.7328 200 36.1369 200 37.6276C200 38.3729 200 39.1356 200 39.9214C200 40.7015 200 41.4988 200 42.3135C200 43.1282 200 43.9544 200 44.7865C200 45.6243 200 46.4736 200 47.323C200 48.1781 200 49.039 200 49.8999C200 50.7666 200 51.6333 200 52.5C200 53.3551 200 54.2334 200 55.0885C200 55.9552 200 56.8161 200 57.6713C200 58.5206 200 59.37 200 60.2078C200 61.0398 200 61.866 200 62.6807C200 63.4954 200 64.2928 200 65.0728C200 65.8586 200 66.6213 200 67.3666C200 68.8573 200 70.2672 200 71.5672C200 72.8672 200 74.0575 200 75.1148C200 76.1664 200 77.0909 200 77.8478C199.994 79.3616 200 80.2341 200 80.2341C199.994 81.2106 199.896 82.1928 199.701 83.1635C199.505 84.1342 199.218 85.0876 198.85 86.0236C198.482 86.9596 198.027 87.8725 197.51 88.745C196.986 89.6232 196.394 90.4495 195.738 91.2411C195.083 92.0269 194.369 92.7664 193.599 93.4367C192.834 94.1127 192.017 94.7309 191.16 95.2625C190.303 95.7941 189.406 96.2505 188.48 96.6203C187.554 96.9959 186.593 97.2675 185.621 97.4523C185.621 97.4523 184.948 97.5737 183.706 97.7875C183.079 97.8973 182.314 98.0301 181.411 98.1746C180.508 98.3306 179.467 98.4982 178.3 98.6773C177.138 98.8564 175.85 99.0471 174.446 99.2435C173.043 99.4342 171.53 99.6248 169.908 99.8213C169.097 99.9137 168.264 100.006 167.401 100.099C166.538 100.185 165.647 100.272 164.744 100.353C163.835 100.428 162.903 100.503 161.943 100.578C160.994 100.642 160.016 100.705 159.021 100.763C158.02 100.815 157.002 100.861 155.967 100.902C154.926 100.936 153.868 100.96 152.792 100.983C151.717 100.994 150.618 101 149.514 101C148.404 100.994 147.277 100.977 146.132 100.948C144.993 100.913 143.831 100.873 142.658 100.815C141.485 100.763 140.3 100.694 139.098 100.613C137.902 100.526 136.688 100.434 135.463 100.324C134.238 100.214 133.001 100.087 131.753 99.9542C130.505 99.8155 129.246 99.6595 127.98 99.5035C126.715 99.336 125.438 99.1568 124.156 98.9719C122.873 98.7813 121.585 98.5848 120.285 98.3768C118.985 98.163 117.685 97.9435 116.374 97.7181C115.063 97.4812 113.751 97.2443 112.434 97.0017C111.111 96.759 109.794 96.5048 108.466 96.2505C107.143 95.9905 105.814 95.7305 104.486 95.4705C103.157 95.2047 101.829 94.9389 100.5 94.6789C99.1657 94.4074 97.8371 94.1474 96.5085 93.8816C95.1799 93.6158 93.8513 93.3558 92.5228 93.1016C91.1999 92.8473 89.8828 92.5931 88.56 92.3447C87.2372 92.102 85.9258 91.8651 84.6145 91.634C83.3089 91.4086 82.0091 91.1891 80.7093 90.9753C79.4095 90.7673 78.1211 90.565 76.8386 90.3686C75.556 90.1953 74.2792 90.0161 73.0138 89.8486C71.7485 89.6868 70.489 89.5366 69.2409 89.3979C67.9928 89.265 66.7563 89.1379 65.5312 89.0281C64.3062 88.9183 63.0926 88.8259 61.8963 88.7392C60.6942 88.6583 59.5095 88.589 58.3362 88.5254C57.1629 88.4792 56.0011 88.4388 54.8623 88.4041C53.7177 88.3752 52.5905 88.3579 51.4804 88.3521C50.3704 88.3521 49.2776 88.3579 48.2021 88.3694C47.1266 88.3925 46.0683 88.4157 45.0273 88.4503C43.9921 88.4908 42.974 88.537 41.979 88.589C40.9783 88.6468 40.0006 88.7103 39.0458 88.7739C38.0853 88.849 37.1593 88.9241 36.2506 88.9992C35.3419 89.0859 34.4562 89.1668 33.5934 89.2535C32.7307 89.3459 31.8968 89.4383 31.0858 89.5308C29.4639 89.7272 27.9513 89.9179 26.5479 90.1086C25.1446 90.305 23.8562 90.4957 22.6887 90.6748C21.5269 90.854 20.4859 91.0273 19.5829 91.166C18.6799 91.3277 17.9092 91.4548 17.2881 91.5646C16.04 91.7842 15.3786 91.8997 15.3786 91.8997C14.4009 92.0731 13.4404 92.1482 12.5144 92.1193C11.5884 92.0962 10.6912 91.9806 9.83422 91.7784C8.97725 91.5762 8.1548 91.2757 7.38986 90.9002C6.61916 90.5304 5.90023 90.0739 5.25607 89.5481C4.6004 89.0108 4.00801 88.4214 3.48462 87.7512C2.96124 87.0867 2.51263 86.3529 2.14454 85.5671C1.77645 84.7756 1.48887 83.9378 1.29332 83.0422C1.09777 82.1524 1 81.2106 1 80.2341C1 80.2341 1 79.3616 1 77.8478C1 77.0909 1 76.1664 1 75.1148C1 74.0575 1 72.8672 1 71.5672C1 70.2672 1 68.8573 1 67.3666C1 66.6213 1 65.8586 1 65.0728C1 64.2928 1 63.4954 1 62.6807C1 61.866 1 61.0398 1 60.2078C1 59.37 1 58.5206 1 57.6713C1 56.8161 1 55.9552 1 55.0885C1 54.2334 1 53.3551 1 52.5C1 51.6333 1 50.7666 1 49.8999C1 49.039 1 48.1781 1 47.323C1 46.4736 1 45.6243 1 44.7865C1 43.9544 1 43.1282 1 42.3135C1 41.4988 1 40.7015 1 39.9214C1 39.1356 1 38.3729 1 37.6276C1 36.1369 1 34.7328 1 33.4328C1 32.1328 1 30.9367 1 29.8794C1 28.8278 1 27.9033 1 27.1464C1 25.6326 1 24.7659 1 24.7659Z" fill="#1B1F20"/>
<path d="M1.28125 24.7083C1.287 23.7434 1.38478 22.7785 1.57457 21.8309C1.76437 20.8775 2.04619 19.9357 2.40853 19.0228C2.77087 18.1041 3.21374 17.2085 3.71986 16.3592C4.23174 15.4983 4.81839 14.6778 5.4568 13.9093C6.09521 13.1409 6.79689 12.4128 7.55033 11.7542C8.29801 11.0955 9.10322 10.4946 9.94293 9.97455C10.7826 9.45454 11.6626 9.00386 12.5713 8.63985C13.4801 8.28162 14.4176 8.01005 15.3723 7.83672C15.3723 7.83672 16.0395 7.72116 17.2875 7.49582C17.9087 7.38604 18.6794 7.2647 19.5823 7.1087C20.4853 6.96425 21.5263 6.79091 22.6881 6.61179C23.8557 6.4269 25.144 6.242 26.5473 6.04555C27.9507 5.85488 29.4633 5.65843 31.0852 5.46776C31.8962 5.36954 32.7302 5.27709 33.5929 5.18464C34.4556 5.10375 35.3413 5.02286 36.25 4.93619C37.1588 4.8553 38.0848 4.78019 39.0452 4.71085C40 4.64729 40.9777 4.57796 41.9785 4.52018C42.9735 4.47396 43.9915 4.42195 45.0267 4.38151C46.0678 4.34684 47.126 4.32373 48.2015 4.30062C49.2771 4.28906 50.3698 4.28906 51.4799 4.28906C52.5899 4.29484 53.7172 4.3064 54.8617 4.34106C56.0005 4.37573 57.1623 4.41618 58.3356 4.4624C59.5089 4.52596 60.6937 4.58951 61.8957 4.67618C63.092 4.76285 64.3056 4.84952 65.5306 4.96508C66.7557 5.07486 67.9923 5.20198 69.2403 5.32909C70.4884 5.47354 71.748 5.62377 73.0133 5.77977C74.2786 5.94733 75.5554 6.13222 76.838 6.30556C78.1206 6.50201 79.4089 6.69846 80.7087 6.91225C82.0085 7.12025 83.3084 7.34559 84.6139 7.56515C85.9253 7.79627 87.2366 8.03894 88.5594 8.27584C89.8823 8.53007 91.1993 8.77852 92.5222 9.03275C93.8508 9.29276 95.1793 9.55276 96.5079 9.81277C97.8365 10.0843 99.1651 10.3328 100.494 10.5986C101.828 10.8644 103.157 11.1359 104.485 11.3959C105.814 11.6617 107.142 11.9217 108.465 12.1759C109.794 12.4302 111.111 12.6902 112.434 12.9271C113.751 13.1755 115.062 13.4066 116.373 13.6435C117.685 13.8747 118.985 14.0884 120.284 14.308C121.584 14.5102 122.873 14.7067 124.155 14.8974C125.438 15.088 126.715 15.2614 127.98 15.4289C129.245 15.5907 130.505 15.7467 131.753 15.8796C133.001 16.0183 134.237 16.1454 135.462 16.2552C136.688 16.3592 137.901 16.4574 139.097 16.5441C140.299 16.6192 141.484 16.6943 142.658 16.7463C143.831 16.8041 144.993 16.8445 146.131 16.8792C147.276 16.9023 148.403 16.9254 149.513 16.9312C150.618 16.9312 151.716 16.9196 152.792 16.9081C153.867 16.885 154.925 16.8619 155.966 16.8272C157.002 16.7867 158.02 16.7463 159.02 16.6885C160.015 16.6307 160.993 16.573 161.942 16.5094C162.903 16.4285 163.834 16.3534 164.743 16.2841C165.646 16.2032 166.538 16.1165 167.4 16.0241C168.263 15.9316 169.097 15.8392 169.908 15.7525C171.53 15.5503 173.042 15.3654 174.446 15.1747C175.849 14.9782 177.137 14.7818 178.299 14.6085C179.467 14.4293 180.508 14.2618 181.411 14.1116C182.314 13.9613 183.079 13.8227 183.706 13.7129C184.948 13.5049 185.621 13.3835 185.621 13.3835C186.576 13.2102 187.513 13.1351 188.422 13.1582C189.331 13.1755 190.21 13.2969 191.05 13.4991C191.89 13.7013 192.689 13.9902 193.443 14.3542C194.19 14.7182 194.892 15.1689 195.536 15.6832C196.175 16.1974 196.756 16.7867 197.268 17.4454C197.779 18.0926 198.222 18.8148 198.585 19.5833C198.947 20.3575 199.229 21.1837 199.419 22.062C199.608 22.9345 199.712 23.8532 199.712 24.8181C199.712 24.8181 199.712 25.6848 199.712 27.1986C199.712 27.9555 199.712 28.88 199.712 29.9315C199.706 30.9947 199.712 32.1849 199.712 33.4792C199.712 34.785 199.706 36.1948 199.712 37.6798C199.712 38.4251 199.706 39.1936 199.706 39.9794C199.706 40.7594 199.712 41.551 199.712 42.3657C199.712 43.1804 199.712 44.0066 199.706 44.8444C199.706 45.6822 199.712 46.5258 199.712 47.3751C199.712 48.2303 199.706 49.097 199.712 49.9521C199.712 50.8188 199.712 51.6855 199.706 52.5579C199.712 53.4189 199.712 54.274 199.712 55.1407C199.706 56.0132 199.712 56.8683 199.712 57.7234C199.712 58.5728 199.706 59.4279 199.706 60.2657C199.712 61.092 199.712 61.9182 199.712 62.7329C199.712 63.5476 199.706 64.3507 199.706 65.1307C199.706 65.9165 199.712 66.6734 199.712 67.4188C199.706 68.9153 199.712 70.3193 199.712 71.6194C199.712 72.9194 199.706 74.1154 199.712 75.167C199.712 76.2186 199.712 77.1431 199.712 77.9C199.712 79.4196 199.712 80.2863 199.712 80.2863C199.712 81.2454 199.608 82.2103 199.419 83.1637C199.229 84.1113 198.947 85.0473 198.585 85.966C198.222 86.8847 197.779 87.7745 197.268 88.6354C196.756 89.4847 196.175 90.3052 195.536 91.0795C194.892 91.8479 194.19 92.5702 193.443 93.2346C192.689 93.8875 191.89 94.4942 191.05 95.02C190.21 95.54 189.331 95.9907 188.422 96.3547C187.513 96.7129 186.576 96.9845 185.621 97.1578C185.621 97.1578 184.948 97.2792 183.706 97.4987C183.079 97.6085 182.314 97.7356 181.411 97.8859C180.508 98.0361 179.467 98.2036 178.299 98.3828C177.137 98.5677 175.849 98.7525 174.446 98.949C173.042 99.1397 171.53 99.3361 169.908 99.5268C169.097 99.625 168.263 99.7175 167.4 99.8099C166.538 99.8908 165.646 99.9775 164.743 100.058C163.834 100.139 162.903 100.214 161.942 100.284C160.993 100.347 160.015 100.417 159.02 100.474C158.02 100.521 157.002 100.573 155.966 100.613C154.925 100.648 153.867 100.671 152.792 100.694C151.716 100.705 150.618 100.705 149.513 100.705C148.403 100.7 147.276 100.688 146.131 100.653C144.993 100.619 143.831 100.578 142.658 100.532C141.484 100.469 140.299 100.405 139.097 100.318C137.901 100.232 136.688 100.145 135.462 100.029C134.237 99.9197 133.001 99.7926 131.753 99.6655C130.505 99.521 129.245 99.365 127.98 99.2148C126.715 99.0472 125.438 98.8623 124.155 98.6832C122.873 98.4925 121.584 98.2961 120.284 98.0823C118.985 97.8743 117.685 97.649 116.373 97.4294C115.062 97.1925 113.751 96.9498 112.434 96.7129C111.111 96.4645 109.794 96.216 108.465 95.9618C107.142 95.696 105.814 95.436 104.485 95.1818C103.157 94.9102 101.828 94.6502 100.494 94.3844C99.1651 94.1186 97.8365 93.8529 96.5079 93.5928C95.1793 93.3213 93.8508 93.0613 92.5222 92.8128C91.1993 92.5586 89.8823 92.2986 88.5594 92.0559C87.2366 91.8075 85.9253 91.5763 84.6139 91.3452C83.3084 91.1141 82.0085 90.9003 80.7087 90.6808C79.4089 90.4785 78.1206 90.2821 76.838 90.0856C75.5554 89.9008 74.2786 89.7274 73.0133 89.5599C71.748 89.3923 70.4884 89.2421 69.2403 89.1092C67.9923 88.9705 66.7557 88.8434 65.5306 88.7336C64.3056 88.6296 63.092 88.5314 61.8957 88.4447C60.6937 88.3696 59.5089 88.2945 58.3356 88.2425C57.1623 88.1847 56.0005 88.1443 54.8617 88.1096C53.7172 88.0865 52.5899 88.0634 51.4799 88.0576C50.3698 88.0576 49.2771 88.0691 48.2015 88.0807C47.126 88.1038 46.0678 88.1269 45.0267 88.1616C43.9915 88.202 42.9735 88.2425 41.9785 88.3003C40.9777 88.358 40 88.4158 39.0452 88.4794C38.0848 88.5603 37.1588 88.6354 36.25 88.7047C35.3413 88.7914 34.4556 88.8723 33.5929 88.9647C32.7302 89.0572 31.8962 89.1496 31.0852 89.2363C29.4633 89.4385 27.9507 89.6234 26.5473 89.8141C25.144 90.0105 23.8557 90.207 22.6881 90.3803C21.5263 90.5594 20.4853 90.7328 19.5823 90.8772C18.6794 91.0332 17.9087 91.1661 17.2875 91.2759C16.0395 91.4897 15.3723 91.6052 15.3723 91.6052C14.4176 91.7786 13.4801 91.8537 12.5713 91.8306C11.6626 91.8133 10.7826 91.6919 9.94293 91.4897C9.10322 91.2875 8.29801 90.9928 7.55033 90.6345C6.79689 90.2648 6.09521 89.8199 5.4568 89.3056C4.81839 88.7856 4.23174 88.1963 3.71986 87.5491C3.21374 86.8904 2.77087 86.174 2.40853 85.4055C2.04619 84.6255 1.76437 83.805 1.57457 82.9326C1.38478 82.0543 1.28125 81.1356 1.28125 80.1765C1.28125 80.1765 1.287 79.3098 1.28125 77.7902C1.28125 77.0333 1.287 76.1088 1.28125 75.0572C1.287 73.9999 1.28125 72.8038 1.28125 71.5038C1.28125 70.2095 1.28125 68.7997 1.28125 67.309C1.28125 66.5637 1.287 65.801 1.287 65.0152C1.287 64.2352 1.28125 63.4378 1.28125 62.6231C1.28125 61.8084 1.28125 60.9822 1.287 60.1502C1.287 59.3124 1.28125 58.463 1.287 57.6136C1.28125 56.7585 1.287 55.8976 1.28125 55.0309C1.28125 54.1758 1.28125 53.3091 1.287 52.4424C1.28125 51.5757 1.28125 50.709 1.28125 49.8423C1.287 48.9814 1.28125 48.1205 1.287 47.2654C1.28125 46.416 1.287 45.5666 1.287 44.7288C1.28125 43.8968 1.28125 43.0706 1.28125 42.2559C1.28125 41.4412 1.287 40.6438 1.287 39.8638C1.287 39.078 1.28125 38.3153 1.28125 37.57C1.28125 36.0793 1.28125 34.6752 1.28125 33.3694C1.28125 32.0694 1.287 30.8791 1.28125 29.8218C1.287 28.7702 1.28125 27.8457 1.28125 27.0888C1.287 25.575 1.28125 24.7083 1.28125 24.7083Z" stroke="white" stroke-opacity="0.09"/>
<path d="M11.916 22.6278C11.916 21.5242 12.3819 20.4206 13.1181 19.5539C13.8485 18.6757 14.855 18.0286 15.9478 17.8437C15.9478 17.8437 16.9485 17.6646 18.6912 17.3641C19.5654 17.2081 20.618 17.0463 21.843 16.8499C23.0566 16.6592 24.4312 16.4396 25.9265 16.2374C26.6742 16.1334 27.4507 16.0294 28.2616 15.9081C29.0668 15.8156 29.9008 15.7116 30.7577 15.6134C31.6147 15.5094 32.4947 15.3996 33.3977 15.3187C34.2949 15.2147 35.2151 15.128 36.1526 15.0414C37.0843 14.9605 38.0391 14.8969 38.9938 14.8103C39.9543 14.7525 40.9378 14.6831 41.9156 14.6254C42.8933 14.5849 43.8825 14.5387 44.8833 14.4867C45.8783 14.452 46.8733 14.4405 47.874 14.4174C48.869 14.3885 49.8641 14.3827 50.8591 14.3943C51.854 14.3943 52.8433 14.3943 53.8268 14.4231C54.8045 14.4289 55.7823 14.4578 56.7428 14.4925C57.7033 14.5329 58.658 14.5849 59.5897 14.6369C60.5272 14.6774 61.4475 14.7467 62.3447 14.7987C63.2477 14.868 64.1276 14.9489 64.9846 15.0067C65.8416 15.0818 66.6755 15.1627 67.4807 15.2552C68.2917 15.3361 69.0681 15.4112 69.8158 15.5036C71.3112 15.677 72.6858 15.8503 73.8993 15.9947C75.1186 16.1623 76.1769 16.3241 77.0454 16.4512C78.7938 16.7112 79.7946 16.8614 79.7946 16.8614C80.8873 17.0348 81.8938 17.6703 82.6185 18.5313C83.3547 19.3864 83.8206 20.4784 83.8148 21.582C83.8206 22.6798 83.3547 23.6043 82.6185 24.2225C81.8938 24.835 80.8873 25.1354 79.7946 24.9563C79.7946 24.9563 78.7938 24.8003 77.0454 24.5345C76.1769 24.4132 75.1186 24.263 73.8993 24.0896C72.6858 23.9394 71.3112 23.7661 69.8158 23.5927C69.0681 23.5061 68.2917 23.4252 67.4807 23.3385C66.6755 23.2634 65.8416 23.1825 64.9846 23.1074C64.1276 23.0323 63.2477 22.9629 62.3447 22.8936C61.4475 22.8358 60.5272 22.778 59.5897 22.726C58.658 22.674 57.7033 22.6278 56.7428 22.5931C55.7823 22.5585 54.8045 22.5238 53.8268 22.5065C52.8433 22.4949 51.854 22.4834 50.8591 22.4776C49.8641 22.4834 48.869 22.4834 47.874 22.5007C46.8733 22.5238 45.8783 22.5527 44.8833 22.5816C43.8825 22.622 42.8933 22.6683 41.9156 22.726C40.9378 22.7838 39.9543 22.8358 38.9938 22.9109C38.0391 22.9803 37.0843 23.0554 36.1526 23.1363C35.2151 23.2287 34.2949 23.3154 33.3977 23.4021C32.4947 23.5003 31.6147 23.5985 30.7577 23.7025C29.9008 23.795 29.0668 23.9047 28.2616 24.003C27.4507 24.1127 26.6742 24.2225 25.9265 24.3207C24.4312 24.5403 23.0566 24.7425 21.843 24.939C20.618 25.1354 19.5654 25.3088 18.6912 25.4532C16.9485 25.7537 15.9535 25.927 15.9535 25.927C14.855 26.1235 13.8485 25.8461 13.1181 25.2452C12.3819 24.6385 11.9275 23.7141 11.916 22.6278Z" fill="#1F2223"/>
<path d="M12.2148 22.5647C12.2148 21.542 12.6347 20.5251 13.3191 19.7162C13.9978 18.9072 14.9353 18.3006 15.9533 18.1157C15.9533 18.1157 16.9483 17.9539 18.691 17.6419C19.5652 17.4974 20.6177 17.3356 21.8428 17.1276C23.0563 16.9485 24.4309 16.7405 25.9263 16.5267C26.674 16.4227 27.4504 16.3072 28.2614 16.1974C29.0666 16.1049 29.9005 15.9894 30.7575 15.9027C31.6145 15.7987 32.4944 15.6889 33.3974 15.608C34.2946 15.504 35.2149 15.4174 36.1524 15.3307C37.0841 15.2498 38.0388 15.1863 38.9936 15.1111C39.9541 15.0418 40.9376 14.984 41.9153 14.9262C42.893 14.8627 43.8823 14.828 44.8831 14.7876C45.8781 14.7529 46.873 14.7298 47.8738 14.6951C48.8688 14.6894 49.8638 14.672 50.8588 14.6836C51.8538 14.6836 52.843 14.6836 53.8265 14.7009C54.8043 14.7298 55.782 14.7587 56.7425 14.7934C57.703 14.8338 58.6578 14.8627 59.5895 14.9147C60.527 14.9667 61.4472 15.0245 62.3444 15.088C63.2474 15.1689 64.1274 15.2383 64.9843 15.3076C65.8413 15.3711 66.6753 15.452 67.4805 15.5445C68.2914 15.6254 69.0679 15.712 69.8156 15.7929C71.3109 15.9663 72.6855 16.1396 73.8991 16.2956C75.1184 16.4516 76.1767 16.6018 77.0451 16.7405C78.7936 17.0005 79.7943 17.1623 79.7943 17.1623C80.8066 17.3125 81.7383 17.8961 82.4227 18.6992C83.1014 19.4966 83.527 20.502 83.527 21.5247C83.5328 22.5531 83.1014 23.414 82.4227 23.9861C81.7383 24.5523 80.8066 24.8354 79.7943 24.6736C79.7943 24.6736 78.7936 24.5118 77.0451 24.2518C76.1767 24.1247 75.1184 23.9687 73.8991 23.8069C72.6855 23.6452 71.3109 23.4718 69.8156 23.2985C69.0679 23.2234 68.2914 23.1367 67.4805 23.0558C66.6753 22.9749 65.8413 22.894 64.9843 22.8189C64.1274 22.7496 63.2474 22.6745 62.3444 22.6109C61.4472 22.5416 60.527 22.4838 59.5895 22.4376C58.6578 22.3798 57.703 22.3393 56.7425 22.2989C55.782 22.27 54.8043 22.2353 53.8265 22.2238C52.843 22.2064 51.8538 22.1949 50.8588 22.1891C49.8638 22.1949 48.8688 22.1949 47.8738 22.2122C46.873 22.2353 45.8781 22.2584 44.8831 22.2989C43.8823 22.3393 42.893 22.3856 41.9153 22.4376C40.9376 22.4896 39.9541 22.5531 38.9936 22.6225C38.0388 22.6976 37.0841 22.7669 36.1524 22.8478C35.2149 22.9345 34.2946 23.0211 33.3974 23.1194C32.4944 23.2118 31.6145 23.3043 30.7575 23.4083C29.9005 23.5123 29.0666 23.6163 28.2614 23.7145C27.4504 23.83 26.674 23.9283 25.9263 24.0381C24.4309 24.2461 23.0563 24.4598 21.8428 24.6447C20.6177 24.8412 19.5652 25.0203 18.691 25.159C16.9483 25.4652 15.9533 25.6385 15.9533 25.6385C14.9353 25.8177 13.9978 25.5634 13.3191 25.003C12.6347 24.4425 12.2148 23.5874 12.2148 22.5647Z" stroke="white" stroke-opacity="0.09"/>
<path d="M113.729 85.6822C113.729 84.5844 114.183 83.6541 114.919 83.0532C115.65 82.4465 116.656 82.1576 117.749 82.3541C117.749 82.3541 118.75 82.5159 120.492 82.8048C121.366 82.9492 122.425 83.111 123.644 83.2959C124.858 83.4692 126.232 83.6657 127.728 83.8621C128.475 83.9661 129.252 84.0643 130.063 84.1568C130.868 84.255 131.702 84.3475 132.559 84.4399C133.416 84.5266 134.296 84.6132 135.199 84.6999C136.096 84.7808 137.016 84.8559 137.954 84.9253C138.885 85.0004 139.84 85.0639 140.801 85.1217C141.761 85.1737 142.739 85.2257 143.717 85.2662C144.7 85.3066 145.689 85.3355 146.684 85.3644C147.679 85.3817 148.674 85.3933 149.669 85.3933C150.67 85.399 151.659 85.3933 152.66 85.3759C153.655 85.3586 154.644 85.3413 155.628 85.3124C156.606 85.2719 157.583 85.2257 158.544 85.1795C159.499 85.1333 160.459 85.0755 161.391 85.0119C162.328 84.9484 163.249 84.879 164.146 84.7981C165.049 84.723 165.929 84.6364 166.786 84.5555C167.643 84.4746 168.477 84.3821 169.276 84.2897C170.093 84.203 170.869 84.1048 171.611 84.0181C173.112 83.8159 174.487 83.6368 175.7 83.4634C176.92 83.2843 177.972 83.1225 178.852 82.9896C180.595 82.7123 181.596 82.5505 181.596 82.5505C182.683 82.3656 183.689 82.6487 184.425 83.2612C185.162 83.8621 185.622 84.7924 185.622 85.8902C185.622 86.9938 185.162 88.0858 184.425 88.9467C183.689 89.8134 182.683 90.449 181.596 90.6396C181.596 90.6396 180.595 90.8014 178.852 91.0845C177.972 91.2174 176.92 91.3792 175.7 91.5583C174.487 91.7259 173.112 91.9108 171.611 92.1072C170.869 92.1939 170.093 92.2863 169.276 92.3846C168.477 92.4712 167.643 92.5637 166.786 92.6446C165.929 92.7312 165.049 92.8121 164.146 92.893C163.249 92.9624 162.328 93.0375 161.391 93.101C160.459 93.1588 159.499 93.2224 158.544 93.2686C157.583 93.3148 156.606 93.361 155.628 93.4015C154.644 93.4304 153.655 93.4477 152.66 93.4708C151.659 93.4766 150.67 93.4882 149.675 93.4882C148.674 93.4824 147.679 93.465 146.684 93.4477C145.689 93.4246 144.7 93.3957 143.717 93.3553C142.739 93.309 141.761 93.2628 140.801 93.205C139.84 93.1473 138.885 93.0895 137.954 93.0201C137.016 92.945 136.096 92.8641 135.199 92.789C134.296 92.7024 133.416 92.6099 132.559 92.529C131.702 92.4366 130.868 92.3441 130.063 92.2459C129.252 92.1535 128.475 92.0494 127.728 91.957C126.232 91.749 124.858 91.5641 123.644 91.3792C122.425 91.1943 121.366 91.0383 120.492 90.8996C118.75 90.605 117.755 90.4432 117.755 90.4432C116.656 90.2525 115.65 89.6112 114.919 88.7387C114.183 87.8778 113.723 86.7742 113.729 85.6822Z" fill="#1F2223"/>
<path d="M114.016 85.7399C114.016 84.7172 114.441 83.8506 115.12 83.2901C115.799 82.7296 116.736 82.4696 117.754 82.643C117.754 82.643 118.749 82.8105 120.492 83.0994C121.366 83.2323 122.424 83.3999 123.644 83.579C124.857 83.7639 126.232 83.9546 127.727 84.151C128.475 84.255 129.251 84.3532 130.062 84.4399C130.867 84.5439 131.701 84.6363 132.558 84.7288C133.415 84.8097 134.295 84.9021 135.198 84.9888C136.095 85.0697 137.016 85.1448 137.953 85.2199C138.885 85.2893 139.84 85.347 140.8 85.4048C141.761 85.4568 142.738 85.5146 143.716 85.5493C144.7 85.5897 145.689 85.6244 146.684 85.6533C147.679 85.6706 148.674 85.6764 149.675 85.6822C150.67 85.6822 151.659 85.6764 152.66 85.6706C153.655 85.6475 154.644 85.6302 155.627 85.6013C156.605 85.5666 157.583 85.5146 158.543 85.4684C159.498 85.4164 160.459 85.3644 161.39 85.295C162.328 85.2373 163.248 85.1621 164.145 85.0928C165.048 85.0119 165.928 84.931 166.785 84.8444C167.642 84.7577 168.476 84.671 169.275 84.5786C170.092 84.4861 170.869 84.3995 171.611 84.3012C173.112 84.1048 174.486 83.9199 175.7 83.7581C176.919 83.579 177.972 83.4172 178.852 83.2785C180.594 82.9954 181.589 82.8336 181.589 82.8336C182.607 82.6603 183.545 82.9261 184.224 83.4981C184.902 84.0586 185.334 84.9195 185.334 85.9422C185.334 86.9649 184.902 87.976 184.224 88.7849C183.545 89.5823 182.607 90.1774 181.595 90.345C181.595 90.345 180.594 90.5067 178.852 90.7956C177.972 90.9285 176.919 91.0903 175.7 91.2694C174.486 91.437 173.112 91.6219 171.611 91.8125C170.869 91.905 170.092 92.0032 169.275 92.0957C168.476 92.1823 167.642 92.2748 166.785 92.3615C165.928 92.4423 165.048 92.5232 164.145 92.6041C163.248 92.6735 162.328 92.7428 161.39 92.8121C160.459 92.8699 159.498 92.9277 158.543 92.9855C157.583 93.0317 156.605 93.0779 155.627 93.1068C154.644 93.1415 153.655 93.1646 152.66 93.1761C151.659 93.1935 150.67 93.1992 149.675 93.1935C148.674 93.1877 147.679 93.1819 146.684 93.1646C145.689 93.1357 144.7 93.101 143.716 93.0664C142.738 93.0259 141.761 92.9739 140.8 92.9161C139.84 92.8641 138.885 92.7948 137.953 92.7255C137.016 92.6503 136.095 92.581 135.198 92.4943C134.295 92.4135 133.415 92.3268 132.558 92.2401C131.701 92.1477 130.867 92.0552 130.062 91.957C129.251 91.8588 128.475 91.7663 127.727 91.6623C126.232 91.4659 124.857 91.2752 123.644 91.0903C122.424 90.9054 121.366 90.7436 120.492 90.605C118.749 90.3161 117.754 90.1485 117.754 90.1485C116.736 89.9809 115.799 89.38 115.12 88.5769C114.435 87.768 114.016 86.7569 114.016 85.7399Z" stroke="white" stroke-opacity="0.09"/>
<path d="M34.0248 48.0112C33.858 49.4788 33.4611 50.8308 32.84 52.0557C32.2533 53.2749 31.5056 54.39 30.5854 55.4185C29.6709 56.4007 28.6299 57.279 27.4624 58.0474C26.2948 58.7928 25.0813 59.4226 23.8275 59.9311C23.8275 59.9311 24.765 61.0173 26.1683 62.6525C26.8642 63.4729 27.6867 64.4321 28.5609 65.4663C29.4351 66.5064 30.3726 67.6157 31.3043 68.7309C32.2361 69.846 33.1736 70.9727 34.0478 72.0301C34.922 73.0932 35.7445 74.087 36.4404 74.9421C37.8437 76.664 38.7812 77.8195 38.7812 77.8195C38.7812 77.8195 36.9925 77.9582 35.2096 78.1142C33.4266 78.2876 31.6494 78.4898 31.6494 78.4898C31.6494 78.4898 30.9535 77.652 29.9182 76.404C29.3949 75.7857 28.791 75.0577 28.1411 74.2892C27.4969 73.5208 26.801 72.7003 26.1108 71.8798C25.4206 71.0651 24.7247 70.2562 24.0805 69.4935C23.4306 68.7366 22.8267 68.0259 22.3033 67.425C21.2681 66.2232 20.5779 65.4201 20.5779 65.4201C19.9625 64.7036 19.3931 64.1085 18.841 63.6232C18.2888 63.132 17.7597 62.7622 17.2593 62.4965C16.3046 61.9187 15.2866 61.728 14.1938 61.9244V57.383L17.892 56.7301C19.1803 56.5047 20.4054 56.2274 21.5787 55.8692C22.7922 55.4705 23.8677 54.9794 24.834 54.3727C25.7945 53.7429 26.5824 52.9686 27.2093 52.05C27.8765 51.1255 28.2676 49.9988 28.3999 48.6583C28.3999 48.6583 27.4394 48.7854 26.0015 48.9876C25.2826 49.0916 24.4486 49.2072 23.5514 49.3401C22.6484 49.4845 21.6879 49.629 20.7332 49.7908C19.7785 49.941 18.8237 50.097 17.9207 50.253C17.0235 50.4148 16.1895 50.5592 15.4706 50.6864C14.0328 50.9464 13.078 51.1255 13.078 51.1255L14.953 47.1098C14.953 47.1098 15.7754 46.9596 17.012 46.74C18.2486 46.5262 19.8992 46.2489 21.5441 45.9831C23.1948 45.7231 24.8455 45.4804 26.082 45.3013C27.3186 45.1338 28.1468 45.024 28.1468 45.024C27.957 44.2035 27.6579 43.4755 27.2553 42.8399C26.847 42.2159 26.3351 41.6843 25.7082 41.251C25.0813 40.8292 24.3451 40.5403 23.4939 40.3901C22.6542 40.2341 21.6994 40.2225 20.6354 40.3439C20.6354 40.3439 18.7489 40.6616 16.8567 40.991C14.9645 41.3261 13.0723 41.6728 13.0723 41.6728L14.953 37.6687C14.953 37.6687 16.6669 37.3567 19.2378 36.9175C20.5261 36.7038 22.0273 36.4669 23.6377 36.2184C24.4429 36.0913 25.2711 35.9757 26.1165 35.8486C26.962 35.7388 27.819 35.6233 28.6817 35.5135C29.5387 35.4037 30.3956 35.2997 31.2411 35.2015C32.0865 35.1033 32.9148 35.0166 33.72 34.9299C35.3304 34.7681 36.8315 34.641 38.1198 34.5312C40.6907 34.3521 42.4104 34.2539 42.4104 34.2539L40.5297 38.0269C40.5297 38.0269 38.2463 38.1887 35.963 38.3736C33.6797 38.5989 31.4021 38.8474 31.4021 38.8474C32.1096 39.5523 32.6732 40.367 33.1046 41.2857C33.5302 42.2043 33.8177 43.2213 33.9615 44.348C33.9615 44.348 36.0723 44.1457 38.1831 43.9724C40.2881 43.8222 42.3989 43.6951 42.3989 43.6951L40.5297 47.4738C40.5297 47.4738 38.902 47.5836 37.2743 47.7107C35.6467 47.8609 34.0248 48.0112 34.0248 48.0112Z" fill="#E1FF26"/>
<path d="M58.2317 37.3681C58.2317 37.3681 56.8744 37.3103 55.517 37.2641C54.1597 37.2352 52.8024 37.2063 52.8024 37.2063L52.0777 41.0833L52.1122 41.1353C52.4113 40.8059 52.7794 40.569 53.2337 40.413C53.6996 40.257 54.1655 40.1877 54.6256 40.1993C55.2122 40.2108 55.7816 40.3206 56.3107 40.5286C56.8456 40.7482 57.3057 41.0544 57.6968 41.4646C58.0879 41.8691 58.3985 42.3544 58.6228 42.9611C58.8529 43.5389 58.9679 44.2207 58.9679 44.9892C58.9679 45.567 58.8701 46.1216 58.6631 46.6648C58.4733 47.1848 58.1857 47.6528 57.7946 48.0457C57.392 48.4444 56.9089 48.7679 56.3107 48.9991C55.7241 49.2244 55.0454 49.3284 54.2632 49.3053C53.6823 49.2937 53.1244 49.1955 52.6126 49.0279C52.1064 48.8488 51.6578 48.5946 51.261 48.2768C50.8699 47.9417 50.5593 47.543 50.335 47.0519C50.1049 46.5723 49.9842 46.0292 49.9727 45.4167H51.5888C51.6118 45.7634 51.6923 46.0812 51.8304 46.3874C51.9857 46.6821 52.1812 46.9479 52.417 47.179C52.6758 47.3928 52.9634 47.5719 53.297 47.699C53.6306 47.8204 54.0102 47.8897 54.4128 47.9012C54.7866 47.9012 55.1547 47.8492 55.494 47.7395C55.8506 47.6066 56.1555 47.4043 56.4085 47.1501C56.6731 46.8959 56.8801 46.5781 57.0354 46.1852C57.1792 45.7865 57.2597 45.3243 57.254 44.7869C57.2597 44.3363 57.1792 43.9318 57.0354 43.5562C56.8916 43.1633 56.6903 42.8398 56.4258 42.5624C56.1612 42.2678 55.8391 42.0366 55.4595 41.8806C55.0914 41.7189 54.6716 41.6322 54.223 41.6148C53.6938 41.6091 53.2165 41.7246 52.8024 41.9557C52.394 42.1811 52.0374 42.4815 51.7153 42.8629L50.3292 42.782C50.3292 42.782 50.6456 41.0255 50.9619 39.2748C51.2725 37.5183 51.5831 35.7676 51.5831 35.7676C51.5831 35.7676 53.2452 35.7849 54.9074 35.8138C56.5696 35.8716 58.2317 35.9409 58.2317 35.9409V37.3681Z" fill="#E1FF26"/>
<path d="M61.0335 42.7301C61.0335 43.2328 61.045 43.8106 61.0623 44.4519C61.1083 45.0817 61.2118 45.6769 61.3671 46.2431C61.5454 46.792 61.8272 47.2889 62.2011 47.6876C62.5864 48.1036 63.1213 48.3347 63.8057 48.3867C64.4844 48.4445 65.0135 48.3 65.3989 47.9476C65.7785 47.5951 66.0488 47.156 66.2156 46.6302C66.3881 46.0813 66.4916 45.5093 66.5089 44.8795C66.5549 44.2497 66.5722 43.6835 66.5722 43.175C66.5722 42.8457 66.5664 42.4817 66.5549 42.083C66.5549 41.6785 66.5204 41.2741 66.4629 40.8754C66.4111 40.4594 66.3191 40.0607 66.2098 39.6678C66.112 39.2807 65.9567 38.934 65.7382 38.6336C65.5369 38.3215 65.2723 38.0673 64.956 37.8651C64.6454 37.6513 64.2601 37.53 63.8 37.4953C63.3456 37.4606 62.9602 37.5184 62.6439 37.6802C62.3218 37.8304 62.0573 38.0442 61.8502 38.3215C61.6432 38.5931 61.4879 38.9051 61.3728 39.2807C61.2693 39.6562 61.1888 40.0434 61.1198 40.4478C61.068 40.8349 61.045 41.2394 61.0335 41.6439C61.0335 42.0425 61.0335 42.4065 61.0335 42.7301ZM59.3253 42.6492C59.3196 42.1523 59.3368 41.6381 59.3598 41.1123C59.3886 40.5749 59.4519 40.0607 59.5496 39.5522C59.6532 39.0438 59.797 38.5816 59.981 38.1251C60.1765 37.686 60.4296 37.2931 60.7632 36.9753C61.091 36.6517 61.4994 36.409 61.9998 36.2357C62.5059 36.0682 63.1098 36.0162 63.8057 36.0682C64.4959 36.1202 65.0883 36.2762 65.5829 36.5188C66.0948 36.7731 66.5089 37.0793 66.8425 37.4549C67.1646 37.8304 67.4234 38.258 67.6132 38.7376C67.803 39.2171 67.9525 39.714 68.056 40.234C68.1538 40.7483 68.2171 41.2799 68.2458 41.8114C68.2688 42.3545 68.2746 42.863 68.2803 43.3657C68.2746 43.8568 68.2631 44.3768 68.2458 44.9026C68.2113 45.44 68.1538 45.9542 68.056 46.4453C67.9525 46.948 67.8087 47.4102 67.6132 47.8494C67.4234 48.2827 67.1703 48.6409 66.8367 48.9587C66.5089 49.2707 66.1005 49.5076 65.6059 49.6636C65.1113 49.8081 64.5131 49.8428 63.8 49.785C63.1098 49.733 62.5059 49.6001 61.9998 49.3747C61.4994 49.1321 61.0968 48.8316 60.7689 48.4734C60.4354 48.1036 60.1765 47.6991 59.9867 47.2427C59.7969 46.7804 59.6474 46.2778 59.5496 45.7693C59.4461 45.2608 59.3828 44.7351 59.3598 44.1977C59.3368 43.6604 59.3253 43.1403 59.3253 42.6492Z" fill="#E1FF26"/>
<path d="M69.3223 47.9941L71.4215 48.231V50.1609C71.4215 50.8889 71.2605 51.484 70.9327 51.9751C70.6048 52.4605 70.0757 52.7667 69.3395 52.8938V51.9463C69.5466 51.8943 69.7306 51.7845 69.8744 51.6574C70.0239 51.5418 70.1447 51.3916 70.2252 51.2182C70.323 51.068 70.3748 50.9062 70.4035 50.7271C70.438 50.5595 70.4553 50.3978 70.438 50.2302L69.3223 50.1146V47.9941Z" fill="#E1FF26"/>
<path d="M74.2043 44.0518C74.2043 44.5661 74.2158 45.1381 74.2445 45.7794C74.279 46.4092 74.3826 47.0101 74.5379 47.5937C74.7219 48.1542 74.998 48.6626 75.3776 49.1017C75.7629 49.5409 76.2921 49.8067 76.9765 49.8991C77.6609 50.0031 78.19 49.8933 78.5696 49.5698C78.9492 49.252 79.2195 48.8186 79.3806 48.2986C79.5646 47.7728 79.6566 47.2008 79.6912 46.5826C79.7257 45.947 79.7429 45.3808 79.7429 44.8665C79.7429 44.543 79.7372 44.1732 79.7257 43.7803C79.7199 43.37 79.6969 42.9714 79.6279 42.5669C79.5819 42.1509 79.5014 41.7464 79.3863 41.3362C79.2828 40.9491 79.1275 40.5851 78.909 40.2788C78.7077 39.9553 78.4488 39.6722 78.1325 39.4584C77.8162 39.2273 77.4251 39.077 76.9765 39.0135C76.5221 38.9441 76.131 38.9788 75.8147 39.1117C75.4984 39.2446 75.2338 39.441 75.0152 39.701C74.8197 39.961 74.6586 40.2673 74.5436 40.6313C74.4401 41.0011 74.3596 41.3824 74.2905 41.7753C74.2503 42.1624 74.2158 42.5669 74.2043 42.9656C74.2043 43.3643 74.2043 43.7283 74.2043 44.0518ZM72.4961 43.8496C72.4961 43.3585 72.5076 42.8442 72.5364 42.3184C72.5536 41.7753 72.6226 41.2669 72.7204 40.77C72.8182 40.2788 72.9677 39.8166 73.1575 39.3717C73.3473 38.9441 73.6119 38.5801 73.9397 38.2739C74.2675 37.985 74.6816 37.7712 75.159 37.6268C75.6766 37.4939 76.2748 37.4823 76.9707 37.5805C77.6724 37.6903 78.259 37.8752 78.7537 38.1583C79.2655 38.4415 79.6854 38.7766 80.0132 39.1752C80.3353 39.5624 80.5999 40.0073 80.7839 40.4926C80.9795 40.9953 81.1233 41.498 81.2268 42.018C81.3246 42.5438 81.3878 43.0696 81.4166 43.6127C81.4396 44.1558 81.4511 44.6701 81.4511 45.167C81.4511 45.6639 81.4396 46.1781 81.4166 46.6981C81.3936 47.2355 81.3246 47.7439 81.2268 48.2408C81.1233 48.732 80.9795 49.1942 80.7839 49.6102C80.5999 50.0262 80.3353 50.3729 80.0132 50.6676C79.6854 50.9622 79.2713 51.1645 78.7709 51.2974C78.2878 51.4129 77.6782 51.4187 76.9765 51.3147C76.2748 51.1991 75.6766 51.02 75.1705 50.7542C74.6816 50.4942 74.2618 50.1649 73.9397 49.772C73.6119 49.3906 73.3531 48.9689 73.1575 48.4951C72.9677 48.0155 72.8239 47.5128 72.7262 46.9928C72.6226 46.467 72.5536 45.9412 72.5364 45.3981C72.5018 44.8665 72.4961 44.3523 72.4961 43.8496Z" fill="#E1FF26"/>
<path d="M83.423 45.4794C83.423 45.9879 83.4288 46.5541 83.4575 47.2013C83.4978 47.8368 83.5956 48.432 83.7624 49.0271C83.9407 49.5991 84.2167 50.1133 84.5963 50.564C84.9759 51.0147 85.5108 51.2978 86.1952 51.4192C86.8739 51.5405 87.4088 51.448 87.7884 51.1418C88.168 50.8298 88.4383 50.408 88.6051 49.8996C88.7776 49.368 88.8811 48.8017 88.9042 48.1835C88.9444 47.5479 88.9617 46.9701 88.9617 46.4675C88.9617 46.1439 88.9559 45.7799 88.9444 45.3812C88.9444 44.9768 88.9157 44.5723 88.8524 44.1678C88.8006 43.7461 88.7144 43.33 88.6051 42.9371C88.4958 42.5327 88.3405 42.1687 88.1277 41.8567C87.9207 41.5273 87.6676 41.2442 87.3455 41.0131C87.0349 40.7704 86.6438 40.6086 86.1952 40.5277C85.7294 40.4411 85.344 40.4642 85.0334 40.5913C84.7171 40.7069 84.4525 40.8975 84.234 41.1633C84.0327 41.406 83.8774 41.7064 83.7624 42.0647C83.6531 42.4287 83.5783 42.81 83.5093 43.2087C83.4633 43.59 83.4345 43.9887 83.423 44.3874C83.423 44.7803 83.423 45.1501 83.423 45.4794ZM81.7148 45.2079C81.7148 44.711 81.7263 44.2025 81.7494 43.6652C81.7724 43.1394 81.8356 42.6309 81.9334 42.134C82.0427 41.6429 82.1807 41.1922 82.3763 40.7646C82.5661 40.3313 82.8249 39.9846 83.1527 39.6842C83.4805 39.401 83.8946 39.2046 84.3893 39.089C84.8954 38.9735 85.4878 38.9793 86.1952 39.1006C86.8796 39.2277 87.4835 39.4299 87.9724 39.7362C88.4843 40.0251 88.8984 40.3775 89.2262 40.7762C89.5541 41.1922 89.8186 41.6371 90.0084 42.1225C90.1925 42.6251 90.342 43.1336 90.4398 43.6652C90.5433 44.191 90.6066 44.7225 90.6353 45.2656C90.6526 45.7972 90.6641 46.3172 90.6641 46.8084C90.6698 47.311 90.6526 47.8253 90.6353 48.3511C90.6066 48.8826 90.5433 49.3911 90.4455 49.8822C90.342 50.3676 90.1982 50.8298 90.0084 51.2458C89.8186 51.6503 89.5541 51.9969 89.2262 52.2801C88.8984 52.5574 88.49 52.7539 87.9954 52.8579C87.5008 52.9734 86.9027 52.9503 86.1952 52.8347C85.4935 52.7076 84.8954 52.5054 84.3893 52.2107C83.8946 51.9276 83.4805 51.5867 83.1585 51.188C82.8249 50.7894 82.5661 50.3502 82.3763 49.8764C82.1865 49.3795 82.0427 48.8769 81.9334 48.3568C81.8414 47.8253 81.7724 47.2995 81.7494 46.7506C81.7263 46.2248 81.7148 45.7048 81.7148 45.2079Z" fill="#E1FF26"/>
<path d="M92.6321 47.1732C92.6379 47.6817 92.6551 48.2537 92.6781 48.8951C92.7184 49.5306 92.8104 50.1373 92.9829 50.7267C93.1612 51.3045 93.4316 51.8245 93.8169 52.2867C94.1965 52.7432 94.7141 53.0378 95.4101 53.1707C96.0945 53.3094 96.6236 53.2227 96.9975 52.9165C97.3828 52.6103 97.6531 52.1885 97.8199 51.6858C97.9925 51.16 98.1017 50.5938 98.1247 49.9698C98.165 49.34 98.1823 48.7622 98.1823 48.2653C98.1823 47.9359 98.1765 47.5719 98.165 47.1732C98.165 46.763 98.1305 46.3643 98.0672 45.9541C98.0155 45.5381 97.9349 45.1279 97.8199 44.7234C97.7164 44.3132 97.5611 43.9549 97.3483 43.6429C97.1413 43.3078 96.8824 43.0131 96.5603 42.7762C96.2498 42.5336 95.8644 42.3718 95.4043 42.2736C94.9499 42.1869 94.5646 42.1984 94.2483 42.3198C93.9319 42.4353 93.6731 42.6202 93.4546 42.8745C93.2418 43.1114 93.098 43.406 92.9829 43.77C92.8794 44.134 92.7989 44.5096 92.7299 44.9025C92.6839 45.2896 92.6551 45.6768 92.6379 46.0812C92.6379 46.4741 92.6379 46.8439 92.6321 47.1732ZM90.9297 46.867C90.9297 46.3701 90.9412 45.8559 90.9699 45.3243C90.9929 44.7985 91.0562 44.2843 91.1597 43.7931C91.2575 43.3078 91.4071 42.8571 91.5969 42.4353C91.7809 42.0078 92.0455 41.6669 92.3675 41.3722C92.7011 41.1064 93.1152 40.9042 93.6041 40.806C94.1045 40.6962 94.7084 40.7135 95.4101 40.8522C96.106 40.9908 96.6984 41.2046 97.193 41.5109C97.6991 41.8171 98.119 42.1695 98.4468 42.5798C98.7747 42.9842 99.0335 43.4349 99.2175 43.926C99.4131 44.4345 99.5626 44.943 99.6604 45.4688C99.7639 46.0003 99.8272 46.5261 99.8502 47.0692C99.8732 47.6124 99.8904 48.1208 99.8904 48.6177C99.8904 49.1204 99.8789 49.6346 99.8502 50.1604C99.8272 50.6804 99.7582 51.2005 99.6546 51.6858C99.5626 52.1769 99.4131 52.6334 99.2175 53.0494C99.0335 53.4539 98.7747 53.7948 98.4468 54.0779C98.119 54.3552 97.7049 54.5459 97.216 54.6383C96.7214 54.7423 96.1175 54.7192 95.4101 54.569C94.7141 54.4361 94.1045 54.2223 93.6041 53.9392C93.1152 53.633 92.7011 53.2863 92.3733 52.8818C92.0455 52.4716 91.7867 52.0325 91.5969 51.5529C91.4071 51.0445 91.2633 50.5418 91.1597 50.0102C91.0562 49.4844 90.9929 48.9586 90.9699 48.4155C90.9412 47.8781 90.9297 47.3639 90.9297 46.867Z" fill="#E1FF26"/>
<path d="M108.581 43.041L109.967 43.3068C109.967 43.3068 109.61 44.1273 109.087 45.3637C108.822 45.9762 108.517 46.6984 108.184 47.4669C107.856 48.2412 107.505 49.0616 107.154 49.8821C106.803 50.7026 106.452 51.523 106.125 52.2973C105.791 53.0657 105.486 53.7822 105.222 54.3947C104.698 55.6254 104.347 56.4458 104.347 56.4458L102.984 56.1743C102.984 56.1743 103.329 55.3538 103.859 54.1231C104.117 53.5106 104.422 52.7942 104.75 52.0257C105.078 51.2515 105.429 50.431 105.78 49.6105C106.13 48.7901 106.481 47.9696 106.809 47.1954C107.137 46.4269 107.442 45.7104 107.701 45.0922C108.23 43.8615 108.581 43.041 108.581 43.041Z" fill="#E1FF26"/>
<path d="M109.248 51.0449C109.248 51.0449 110.617 51.2934 111.991 51.5649C113.36 51.8192 114.735 52.0676 114.735 52.0676V53.5872C114.735 53.5872 113.36 53.3445 111.991 53.0903C110.617 52.8303 109.248 52.5645 109.248 52.5645V51.0449Z" fill="#E1FF26"/>
<path d="M158.97 43.0885C158.958 42.1352 159.062 41.1992 159.246 40.2978C159.424 39.3907 159.694 38.5124 160.039 37.6688C160.39 36.8195 160.816 36.0048 161.305 35.2479C161.799 34.4852 162.357 33.7572 162.978 33.0927C163.594 32.4225 164.278 31.7985 164.997 31.2438C165.733 30.6775 166.51 30.1806 167.332 29.7473C168.155 29.3139 169.012 28.9557 169.903 28.6668C170.795 28.3779 171.721 28.1641 172.664 28.0486C173.613 27.9215 174.539 27.8926 175.424 27.9504C176.322 28.0081 177.179 28.1468 178.001 28.3664C178.818 28.5917 179.594 28.8922 180.325 29.2735C181.055 29.6433 181.734 30.0997 182.355 30.614C182.97 31.1282 183.534 31.7118 184.023 32.3647C184.518 33.0003 184.937 33.711 185.288 34.4736C185.633 35.2363 185.898 36.051 186.082 36.9119C186.266 37.7786 186.364 38.6915 186.364 39.6391C186.364 40.5925 186.266 41.5401 186.082 42.4645C185.898 43.3948 185.633 44.3019 185.288 45.1917C184.937 46.0757 184.518 46.9366 184.023 47.7513C183.534 48.566 182.97 49.3461 182.355 50.0683C181.734 50.8021 181.055 51.4723 180.325 52.0906C179.594 52.703 178.818 53.2462 178.001 53.7257C177.179 54.1995 176.322 54.5924 175.424 54.9044C174.539 55.2107 173.613 55.436 172.67 55.5573C171.721 55.6787 170.795 55.696 169.903 55.6209C169.012 55.54 168.155 55.3667 167.332 55.1067C166.51 54.8351 165.733 54.4884 164.997 54.0608C164.278 53.6275 163.594 53.1248 162.978 52.547C162.357 51.975 161.799 51.3394 161.305 50.6345C160.816 49.9412 160.39 49.1843 160.039 48.3869C159.694 47.578 159.424 46.7344 159.246 45.8504C159.062 44.9606 158.97 44.0361 158.97 43.0885Z" fill="url(#paint0_linear_6908_140601)"/>
<path d="M155.484 43.2433C155.484 42.29 155.576 41.3539 155.76 40.4526C155.939 39.5512 156.209 38.6788 156.56 37.841C156.905 36.9974 157.331 36.1942 157.819 35.4489C158.314 34.692 158.872 33.9813 159.493 33.3284C160.109 32.6697 160.793 32.0572 161.523 31.5199C162.248 30.971 163.03 30.4914 163.847 30.0696C164.669 29.6536 165.526 29.3127 166.418 29.0412C167.309 28.7638 168.235 28.5731 169.179 28.4691C170.128 28.3594 171.048 28.3478 171.934 28.4229C172.831 28.4923 173.693 28.6425 174.51 28.8794C175.333 29.1163 176.103 29.4283 176.839 29.8154C177.564 30.1967 178.243 30.659 178.864 31.179C179.485 31.7048 180.043 32.2999 180.538 32.9528C181.027 33.5942 181.452 34.3106 181.797 35.0791C182.142 35.8476 182.413 36.6623 182.597 37.5232C182.781 38.3899 182.879 39.3028 182.879 40.2561C182.879 41.2037 182.781 42.1513 182.597 43.0758C182.413 44.006 182.142 44.9132 181.797 45.7972C181.452 46.6754 181.027 47.5306 180.538 48.3395C180.043 49.1542 179.485 49.9226 178.864 50.6449C178.243 51.3613 177.564 52.0258 176.839 52.6325C176.103 53.2392 175.333 53.7707 174.51 54.2387C173.693 54.6952 172.831 55.0765 171.934 55.377C171.048 55.6659 170.128 55.8739 169.179 55.9837C168.235 56.0877 167.309 56.0819 166.418 55.9952C165.526 55.897 164.669 55.7063 163.847 55.429C163.03 55.1459 162.248 54.7819 161.523 54.337C160.793 53.8863 160.109 53.3721 159.493 52.7885C158.872 52.1991 158.314 51.5462 157.819 50.8355C157.331 50.1306 156.905 49.3622 156.56 48.559C156.209 47.7443 155.939 46.895 155.76 46.0052C155.576 45.1154 155.484 44.1909 155.484 43.2433Z" fill="#00FB87"/>
<mask id="mask0_6908_140601" style="mask-type:alpha" maskUnits="userSpaceOnUse" x="155" y="28" width="28" height="29">
<path d="M155.484 43.2429C155.484 42.2895 155.576 41.3535 155.76 40.4522C155.939 39.5508 156.209 38.6783 156.548 37.8405C156.905 36.997 157.325 36.1938 157.819 35.4485C158.308 34.6916 158.872 33.9809 159.493 33.3222C160.109 32.6693 160.787 32.0568 161.512 31.5195C162.242 30.9706 163.019 30.491 163.841 30.0692C164.664 29.6532 165.521 29.3123 166.412 29.0407C167.298 28.7692 168.23 28.5785 169.179 28.4745C170.122 28.3589 171.048 28.3474 171.934 28.4225C172.831 28.4918 173.688 28.6421 174.51 28.879C175.327 29.1158 176.103 29.4279 176.834 29.815C177.564 30.1963 178.243 30.6586 178.864 31.1844C179.479 31.7044 180.043 32.2995 180.526 32.9524C181.027 33.5937 181.446 34.3102 181.797 35.0787C182.142 35.8471 182.407 36.6618 182.591 37.5285C182.775 38.3894 182.873 39.3024 182.861 40.2557C182.873 41.2033 182.775 42.1509 182.591 43.0811C182.407 44.0056 182.142 44.9127 181.797 45.7968C181.446 46.675 181.027 47.5301 180.526 48.339C180.043 49.1537 179.479 49.9222 178.864 50.6444C178.243 51.3609 177.564 52.0254 176.834 52.6321C176.103 53.2387 175.327 53.7703 174.51 54.2383C173.688 54.6948 172.831 55.0761 171.934 55.3766C171.048 55.6655 170.122 55.8735 169.179 55.9833C168.23 56.0873 167.298 56.0873 166.412 55.9948C165.521 55.8966 164.664 55.7059 163.841 55.4286C163.019 55.1455 162.242 54.7814 161.512 54.3365C160.787 53.8859 160.109 53.3716 159.493 52.7823C158.872 52.1987 158.308 51.5458 157.819 50.8351C157.325 50.1302 156.905 49.3617 156.548 48.5586C156.209 47.7439 155.939 46.8946 155.76 46.0048C155.576 45.115 155.484 44.1905 155.484 43.2429Z" fill="#E1FF26"/>
</mask>
<g mask="url(#mask0_6908_140601)">
<path d="M185.629 29.9297C185.381 30.5133 184.985 31.2875 184.461 32.16C183.926 33.044 183.253 34.0205 182.442 35.0085C181.631 36.0139 180.671 37.0192 179.595 37.9495C178.508 38.8855 177.289 39.7406 175.937 40.4282C174.252 41.2833 172.935 41.9247 171.865 42.5198C170.796 43.1034 169.962 43.6407 169.243 44.2705C168.518 44.8945 167.903 45.6226 167.259 46.5759C166.614 47.5408 165.936 48.7311 165.107 50.3027C164.44 51.5507 163.652 52.689 162.801 53.6943C161.956 54.6939 161.058 55.5664 160.179 56.3117C159.304 57.0513 158.447 57.6522 157.682 58.1318C156.912 58.5998 156.25 58.9465 155.744 59.1487" stroke="#00D271" stroke-width="2"/>
<path d="M179.262 21.3613C179.014 21.9391 178.623 22.7076 178.094 23.5685C177.559 24.4294 176.886 25.4001 176.07 26.3708C175.264 27.3473 174.31 28.3295 173.223 29.2367C172.141 30.138 170.916 30.9643 169.565 31.6056C167.874 32.403 166.568 33.0096 165.493 33.5643C164.423 34.119 163.595 34.6217 162.87 35.2284C162.151 35.8293 161.536 36.5342 160.891 37.4644C160.247 38.4005 159.569 39.5676 158.735 41.1045C158.073 42.3352 157.28 43.4388 156.434 44.4153C155.583 45.3802 154.68 46.2238 153.811 46.9287C152.931 47.6336 152.074 48.2056 151.315 48.6505C150.55 49.0839 149.883 49.3959 149.383 49.5923" stroke="#00D271" stroke-width="4"/>
<path d="M190.724 36.459C190.477 37.0426 190.086 37.8226 189.557 38.7008C189.022 39.5906 188.349 40.5729 187.538 41.5782C186.727 42.5894 185.772 43.6121 184.685 44.5654C183.604 45.513 182.385 46.397 181.033 47.1135C179.342 47.9975 178.025 48.6735 176.955 49.286C175.886 49.8985 175.058 50.4474 174.333 51.1003C173.614 51.7474 172.998 52.4812 172.354 53.4634C171.71 54.4399 171.037 55.6475 170.203 57.2364C169.53 58.5134 168.748 59.6632 167.897 60.6974C167.046 61.7201 166.149 62.6215 165.274 63.3899C164.4 64.1526 163.543 64.7824 162.772 65.2851C162.013 65.7762 161.346 66.1345 160.846 66.3656" stroke="#00D271" stroke-width="6"/>
</g>
<path d="M159.033 43.0821C159.033 41.678 159.321 40.3202 159.833 39.0722C160.345 37.8126 161.081 36.6685 162.007 35.6863C162.915 34.6925 164.014 33.8605 165.233 33.2364C166.447 32.6067 167.781 32.1849 169.185 32.0404C170.582 31.8786 171.916 31.9942 173.124 32.3524C174.344 32.7049 175.442 33.2942 176.357 34.0858C177.277 34.8658 178.013 35.8539 178.531 36.9979C179.042 38.1361 179.33 39.4304 179.33 40.8344C179.33 42.2443 179.042 43.631 178.531 44.9368C178.013 46.2368 177.277 47.4444 176.357 48.5075C175.442 49.5591 174.344 50.4663 173.124 51.1423C171.916 51.8125 170.582 52.2632 169.179 52.425C167.781 52.581 166.447 52.425 165.233 52.0263C164.014 51.6218 162.915 50.9574 162.007 50.108C161.081 49.2471 160.345 48.1955 159.833 47.011C159.321 45.815 159.033 44.4919 159.033 43.0821Z" stroke="black"/>
<path fill-rule="evenodd" clip-rule="evenodd" d="M170.747 31.6814C169.488 32.0165 168.315 32.5596 167.251 33.2703C166.181 33.9752 165.232 34.8419 164.438 35.8299C163.644 36.8179 163.006 37.9331 162.569 39.1233C162.12 40.3136 161.89 41.5847 161.89 42.9021C161.89 44.2137 162.12 45.4502 162.569 46.5827C163.006 47.7036 163.644 48.7147 164.438 49.5641C165.232 50.4134 166.181 51.1068 167.251 51.5921C168.315 52.0832 169.499 52.3664 170.747 52.4126C170.241 52.5513 169.718 52.6437 169.183 52.7188C167.739 52.8633 166.365 52.7188 165.117 52.3028C163.869 51.881 162.741 51.1992 161.798 50.3268C160.855 49.4427 160.09 48.3565 159.561 47.1373C159.032 45.9124 158.744 44.543 158.744 43.0928C158.744 41.6483 159.032 40.2558 159.561 38.9731C160.09 37.6846 160.855 36.5117 161.798 35.5006C162.741 34.4779 163.869 33.6227 165.117 32.9814C166.365 32.3343 167.739 31.9067 169.183 31.7507C169.718 31.6871 170.241 31.664 170.747 31.6814Z" fill="black"/>
<path d="M172.128 47.2474L171.098 47.2994L171.081 46.7736L172.116 46.7332C173.922 46.6349 175.348 45.0633 175.308 43.2491L175.228 40.441C175.199 39.5338 174.808 38.7307 174.198 38.1703C173.588 37.5982 172.76 37.2747 171.851 37.3325L170.822 37.3729L170.805 36.8644L171.828 36.8067C172.887 36.7604 173.841 37.1244 174.555 37.7831C175.262 38.4245 175.711 39.349 175.745 40.4005L175.826 43.2086C175.854 44.2602 175.452 45.2424 174.785 45.9705C174.118 46.7043 173.18 47.1896 172.133 47.2416L172.128 47.2474Z" fill="black"/>
<path d="M171.353 47.2885L170.841 47.3117L170.835 47.0459C170.812 46.1214 170.554 45.2836 170.076 44.5787L170.352 44.0645L170.496 44.2782C171.037 45.0698 171.324 45.9943 171.347 47.0228L171.353 47.2885Z" fill="black"/>
<path d="M169.563 43.9366L169.379 43.7691C168.338 42.7926 167.107 42.4633 167.095 42.4633L167.072 41.9721C168.332 41.5272 169.275 40.753 169.873 39.6667L169.994 39.4414L170.328 39.9094C169.77 40.9206 168.947 41.689 167.872 42.1975C168.372 42.4113 169.074 42.7811 169.729 43.3877L169.844 43.4975C169.724 43.6304 169.632 43.7806 169.557 43.9366H169.563Z" fill="black"/>
<path d="M170.732 38.997C170.571 38.841 170.456 38.6388 170.392 38.4193L170.387 38.3788C170.559 37.6681 170.553 37.1366 170.553 37.1308L170.548 36.8708L171.06 36.8477L171.071 37.1019C171.065 37.1308 171.088 37.7143 170.887 38.5001L170.732 38.997Z" fill="black"/>
<path d="M169.592 47.3625L168.556 47.3914C167.51 47.4261 166.543 47.0216 165.842 46.3398C165.134 45.6638 164.674 44.7162 164.651 43.6646L164.576 40.8508C164.542 39.7992 164.939 38.8401 165.606 38.1352C166.279 37.4303 167.216 36.9854 168.257 36.9449L169.298 36.916L169.31 37.4303L168.28 37.4765C166.469 37.5111 165.042 39.0192 165.082 40.845L165.169 43.6531C165.192 44.5602 165.583 45.3807 166.192 45.97C166.808 46.5478 167.636 46.9061 168.545 46.8772L169.58 46.8425L169.592 47.3625Z" fill="black"/>
<path d="M169.85 47.347L169.332 47.3759L169.327 47.1159C169.327 47.087 169.309 46.4976 169.522 45.6829C169.649 45.2034 169.833 44.7469 170.063 44.3193C170.621 43.3024 171.449 42.534 172.519 42.0024C172.145 41.8522 171.656 41.6153 171.161 41.2455C170.695 40.8988 170.172 40.4135 169.775 39.749C169.373 39.0845 169.074 38.241 169.045 37.1836L169.039 36.9236L169.557 36.9062L169.562 37.1663C169.608 38.6859 170.247 39.9223 171.466 40.8237C172.381 41.4939 173.289 41.7077 173.301 41.7135L173.324 42.2104C172.053 42.6726 171.121 43.4584 170.517 44.562C170.31 44.9491 170.138 45.3709 170.023 45.8158C169.833 46.5438 169.844 47.087 169.844 47.087L169.85 47.347Z" fill="black"/>
<path d="M149.963 29.5607C151.907 29.0234 153.086 28.5149 153.908 27.6425C154.731 26.7642 155.202 25.522 155.72 23.4766C156.226 25.4873 156.692 26.6949 157.52 27.5211C158.349 28.3358 159.533 28.7634 161.477 29.1736C159.533 29.8323 158.349 30.3812 157.52 31.2768C156.692 32.1724 156.226 33.4204 155.72 35.4542C155.202 33.4551 154.731 32.2417 153.908 31.3981C153.086 30.5603 151.907 30.0923 149.963 29.5607Z" fill="url(#paint1_linear_6908_140601)"/>
<path d="M186.363 47.0117C186.939 49.0109 187.405 49.3807 189.579 49.5309C187.41 50.49 186.927 51.0389 186.363 53.2461C185.788 51.2354 185.322 50.8714 183.148 50.6865C185.322 49.7562 185.788 49.2189 186.363 47.0117Z" fill="url(#paint2_linear_6908_140601)"/>
<path d="M152.498 35.0918C152.849 36.3745 153.131 36.6518 154.454 36.9638C153.131 37.3336 152.849 37.611 152.487 38.8995C152.142 37.6283 151.86 37.351 150.531 37.0159C151.86 36.6692 152.13 36.3861 152.498 35.0918Z" fill="url(#paint3_linear_6908_140601)"/>
<path d="M234 22.5C248.522 18.4667 251.646 15.1997 255.5 -9.39795e-07C259.354 15.1975 262.476 18.4667 277 22.5C262.476 26.5333 259.352 29.8025 255.5 45C251.646 29.8025 248.522 26.5333 234 22.5Z" fill="url(#paint4_linear_6908_140601)"/>
<path d="M286 48.5C290.053 47.3348 290.924 46.391 292 42C293.076 46.3904 293.947 47.3348 298 48.5C293.947 49.6652 293.075 50.6096 292 55C290.924 50.6096 290.053 49.6652 286 48.5Z" fill="url(#paint5_linear_6908_140601)"/>
<defs>
<filter id="filter0_b_6908_140601" x="39.7832" y="22.7852" width="208.428" height="104.422" filterUnits="userSpaceOnUse" color-interpolation-filters="sRGB">
<feFlood flood-opacity="0" result="BackgroundImageFix"/>
<feGaussianBlur in="BackgroundImageFix" stdDeviation="2"/>
<feComposite in2="SourceAlpha" operator="in" result="effect1_backgroundBlur_6908_140601"/>
<feBlend mode="normal" in="SourceGraphic" in2="effect1_backgroundBlur_6908_140601" result="shape"/>
</filter>
<linearGradient id="paint0_linear_6908_140601" x1="172.672" y1="23.2474" x2="172.672" y2="50.7674" gradientUnits="userSpaceOnUse">
<stop stop-color="#5B680B"/>
<stop offset="0.48" stop-color="#C0DC16"/>
<stop offset="0.965" stop-color="#5B680B"/>
</linearGradient>
<linearGradient id="paint1_linear_6908_140601" x1="149.56" y1="17.0393" x2="157.606" y2="28.169" gradientUnits="userSpaceOnUse">
<stop stop-color="#00FB87"/>
<stop offset="1" stop-color="#E1FF26"/>
</linearGradient>
<linearGradient id="paint2_linear_6908_140601" x1="189.695" y1="44.1597" x2="183.692" y2="48.4588" gradientUnits="userSpaceOnUse">
<stop stop-color="#00FB87"/>
<stop offset="1" stop-color="#E1FF26"/>
</linearGradient>
<linearGradient id="paint3_linear_6908_140601" x1="154.533" y1="28.6579" x2="150.863" y2="31.2863" gradientUnits="userSpaceOnUse">
<stop stop-color="#00FB87"/>
<stop offset="1" stop-color="#E1FF26"/>
</linearGradient>
<linearGradient id="paint4_linear_6908_140601" x1="232.498" y1="-0.805007" x2="262.761" y2="40.8212" gradientUnits="userSpaceOnUse">
<stop stop-color="#00FB87"/>
<stop offset="1" stop-color="#E1FF26"/>
</linearGradient>
<linearGradient id="paint5_linear_6908_140601" x1="285.581" y1="41.7674" x2="294.413" y2="53.5022" gradientUnits="userSpaceOnUse">
<stop stop-color="#00FB87"/>
<stop offset="1" stop-color="#E1FF26"/>
</linearGradient>
</defs>
</svg>
