<svg width="153" height="42" viewBox="0 0 153 42" fill="none" xmlns="http://www.w3.org/2000/svg">
<path d="M17.0166 9.27224V15.6581L32.6066 6.61751V0.390625L17.0166 9.27224Z" fill="#FCFCD8"/>
<path d="M29.7813 10.2441L24.3281 13.4733L39.9237 22.5055L45.2389 19.3572L29.7813 10.2441Z" fill="#FCFCD8"/>
<path d="M5.4532 19.334L0 22.5632L15.5955 31.5926L20.9108 28.4443L5.4532 19.334Z" fill="#FCFCD8"/>
<path d="M12.4541 35.2215V41.6101L28.0441 32.5695V26.3398L12.4541 35.2215Z" fill="#FCFCD8"/>
<path d="M15.1958 5.11094L9.6709 2.01562L9.93294 20.1832L15.3199 23.2032L15.1958 5.11094Z" fill="#FCFCD8"/>
<path d="M35.2386 21.8462L29.7109 18.748L29.973 36.9156L35.36 39.9356L35.2386 21.8462Z" fill="#FCFCD8"/>
<path d="M67.3383 11.6375C67.3383 12.2825 67.417 12.86 67.5745 13.37C67.7345 13.88 67.9645 14.3125 68.2645 14.6675C68.5645 15.02 68.9295 15.2912 69.3595 15.4812C69.792 15.6687 70.2795 15.7625 70.822 15.7625C71.702 15.7625 72.417 15.515 72.967 15.02C73.517 14.5225 73.8833 13.795 74.0658 12.8375H75.6408C75.5283 13.5225 75.3345 14.1362 75.0595 14.6787C74.7845 15.2212 74.4395 15.6812 74.0245 16.0587C73.6095 16.4362 73.132 16.725 72.592 16.925C72.052 17.125 71.4608 17.225 70.8183 17.225C70.3183 17.225 69.8458 17.1638 69.4008 17.0413C68.9558 16.9187 68.5458 16.7437 68.1708 16.5162C67.7983 16.2862 67.4633 16.0075 67.1658 15.68C66.8683 15.35 66.6145 14.9787 66.4045 14.5662C66.197 14.1512 66.0383 13.6975 65.9283 13.205C65.8183 12.7125 65.7633 12.19 65.7633 11.6375C65.7633 11.0825 65.8183 10.56 65.9283 10.07C66.0383 9.5775 66.197 9.125 66.4045 8.7125C66.6145 8.2975 66.8683 7.92625 67.1658 7.59875C67.4633 7.26875 67.7983 6.99 68.1708 6.7625C68.5458 6.5325 68.9558 6.35625 69.4008 6.23375C69.8458 6.11125 70.3183 6.05 70.8183 6.05C71.4608 6.05 72.052 6.15 72.592 6.35C73.132 6.55 73.6095 6.83875 74.0245 7.21625C74.4395 7.59375 74.7845 8.05375 75.0595 8.59625C75.3345 9.13875 75.5283 9.7525 75.6408 10.4375H74.0658C73.8833 9.48 73.517 8.75375 72.967 8.25875C72.417 7.76125 71.702 7.5125 70.822 7.5125C70.2795 7.5125 69.792 7.6075 69.3595 7.7975C68.9295 7.985 68.5645 8.25625 68.2645 8.61125C67.9645 8.96375 67.7345 9.395 67.5745 9.905C67.417 10.415 67.3383 10.9925 67.3383 11.6375ZM76.6078 12.8637C76.6078 12.4287 76.6516 12.0187 76.7391 11.6337C76.8266 11.2487 76.9528 10.895 77.1178 10.5725C77.2828 10.25 77.4841 9.96125 77.7216 9.70625C77.9591 9.44875 78.2266 9.23125 78.5241 9.05375C78.8241 8.87625 79.1528 8.74125 79.5103 8.64875C79.8678 8.55375 80.2478 8.50625 80.6503 8.50625C81.0553 8.50625 81.4353 8.55375 81.7903 8.64875C82.1478 8.74125 82.4753 8.87625 82.7728 9.05375C83.0728 9.23125 83.3416 9.44875 83.5791 9.70625C83.8166 9.96125 84.0178 10.25 84.1828 10.5725C84.3478 10.895 84.4741 11.2487 84.5616 11.6337C84.6491 12.0187 84.6928 12.4287 84.6928 12.8637C84.6928 13.2987 84.6491 13.7087 84.5616 14.0937C84.4741 14.4787 84.3478 14.8337 84.1828 15.1587C84.0178 15.4812 83.8166 15.77 83.5791 16.025C83.3416 16.28 83.0728 16.4975 82.7728 16.6775C82.4753 16.855 82.1478 16.99 81.7903 17.0825C81.4353 17.1775 81.0553 17.225 80.6503 17.225C80.2478 17.225 79.8678 17.1775 79.5103 17.0825C79.1528 16.99 78.8241 16.855 78.5241 16.6775C78.2266 16.4975 77.9591 16.28 77.7216 16.025C77.4841 15.77 77.2828 15.4812 77.1178 15.1587C76.9528 14.8337 76.8266 14.4787 76.7391 14.0937C76.6516 13.7087 76.6078 13.2987 76.6078 12.8637ZM78.1266 12.8637C78.1266 13.3262 78.1841 13.7425 78.2991 14.1125C78.4166 14.48 78.5841 14.7937 78.8016 15.0537C79.0216 15.3112 79.2878 15.5087 79.6003 15.6462C79.9128 15.7837 80.2641 15.8525 80.6541 15.8525C81.0441 15.8525 81.3941 15.7837 81.7041 15.6462C82.0166 15.5087 82.2816 15.3112 82.4991 15.0537C82.7166 14.7937 82.8828 14.48 82.9978 14.1125C83.1153 13.7425 83.1741 13.3262 83.1741 12.8637C83.1741 12.4012 83.1153 11.9862 82.9978 11.6187C82.8828 11.2487 82.7166 10.935 82.4991 10.6775C82.2816 10.42 82.0166 10.2225 81.7041 10.085C81.3941 9.9475 81.0441 9.87875 80.6541 9.87875C80.2641 9.87875 79.9128 9.9475 79.6003 10.085C79.2878 10.2225 79.0216 10.4212 78.8016 10.6812C78.5841 10.9387 78.4166 11.2512 78.2991 11.6187C78.1841 11.9862 78.1266 12.4012 78.1266 12.8637ZM87.2203 17H85.7016V5.9H87.2203V11.12C87.3203 10.7125 87.4641 10.3475 87.6516 10.025C87.8391 9.7025 88.0641 9.42875 88.3266 9.20375C88.5891 8.97875 88.8853 8.80625 89.2153 8.68625C89.5453 8.56625 89.9028 8.50625 90.2878 8.50625C90.7578 8.50625 91.1791 8.595 91.5516 8.7725C91.9241 8.95 92.2391 9.20625 92.4966 9.54125C92.7566 9.87375 92.9553 10.28 93.0928 10.76C93.2303 11.2375 93.2991 11.7762 93.2991 12.3762V17H91.7803V12.3762C91.7803 11.5462 91.6041 10.9225 91.2516 10.505C90.8991 10.0875 90.3678 9.87875 89.6578 9.87875C89.2753 9.87875 88.9328 9.93875 88.6303 10.0587C88.3303 10.1762 88.0753 10.3487 87.8653 10.5762C87.6578 10.8012 87.4978 11.0787 87.3853 11.4087C87.2753 11.7362 87.2203 12.1087 87.2203 12.5262V17ZM101.996 8.73125L98.5719 17.5213C98.3994 17.9613 98.1982 18.3413 97.9682 18.6613C97.7407 18.9813 97.4782 19.245 97.1807 19.4525C96.8857 19.6625 96.5544 19.8175 96.1869 19.9175C95.8219 20.0175 95.4157 20.0675 94.9682 20.0675C94.7232 20.0675 94.4932 20.0525 94.2782 20.0225V18.6988C94.4107 18.7163 94.5332 18.7288 94.6457 18.7363C94.7607 18.7438 94.8707 18.7475 94.9757 18.7475C95.2257 18.7475 95.4519 18.7238 95.6544 18.6763C95.8569 18.6288 96.0369 18.555 96.1944 18.455C96.3544 18.355 96.4932 18.2275 96.6107 18.0725C96.7282 17.92 96.8269 17.7363 96.9069 17.5213L97.0119 17.2438L93.7307 8.73125H95.3057L97.8669 15.6162L100.458 8.73125H101.996ZM110.668 8.73125L107.701 17H105.339L102.403 8.73125H103.978L106.539 16.0587L109.13 8.73125H110.668ZM118.595 14.2587C118.487 14.7212 118.32 15.1362 118.092 15.5037C117.867 15.8712 117.591 16.1825 117.264 16.4375C116.939 16.6925 116.567 16.8875 116.15 17.0225C115.735 17.1575 115.285 17.225 114.8 17.225C114.395 17.225 114.014 17.1775 113.656 17.0825C113.299 16.9875 112.969 16.8512 112.666 16.6737C112.366 16.4937 112.096 16.2762 111.856 16.0212C111.619 15.7637 111.416 15.4737 111.249 15.1512C111.084 14.8262 110.957 14.4712 110.87 14.0862C110.782 13.6987 110.739 13.2875 110.739 12.8525C110.739 12.4175 110.782 12.0087 110.87 11.6262C110.957 11.2437 111.082 10.8912 111.245 10.5687C111.41 10.2462 111.61 9.9575 111.845 9.7025C112.08 9.4475 112.346 9.23125 112.644 9.05375C112.941 8.87625 113.267 8.74125 113.622 8.64875C113.977 8.55375 114.355 8.50625 114.755 8.50625C115.347 8.50625 115.882 8.60875 116.36 8.81375C116.837 9.01625 117.245 9.305 117.582 9.68C117.92 10.055 118.18 10.5087 118.362 11.0412C118.545 11.5737 118.636 12.17 118.636 12.83C118.636 12.925 118.634 13.0187 118.629 13.1112C118.624 13.2037 118.617 13.3062 118.61 13.4187H112.287C112.332 13.7962 112.422 14.1362 112.557 14.4387C112.695 14.7387 112.872 14.9937 113.09 15.2037C113.31 15.4137 113.566 15.575 113.859 15.6875C114.154 15.7975 114.48 15.8525 114.837 15.8525C115.39 15.8525 115.851 15.72 116.221 15.455C116.591 15.1875 116.877 14.7887 117.08 14.2587H118.595ZM117.065 12.1062C117.015 11.7462 116.927 11.4287 116.802 11.1537C116.677 10.8762 116.517 10.6437 116.322 10.4562C116.127 10.2662 115.899 10.1225 115.636 10.025C115.376 9.9275 115.085 9.87875 114.762 9.87875C114.432 9.87875 114.13 9.93 113.855 10.0325C113.58 10.1325 113.337 10.2787 113.127 10.4712C112.92 10.6612 112.747 10.895 112.61 11.1725C112.472 11.4475 112.375 11.7587 112.317 12.1062H117.065ZM65.3695 34L69.367 23.275H71.7295L75.6745 34H74.002L73.0233 31.3112H67.9983L67.0045 34H65.3695ZM72.502 29.8862L70.5295 24.4637L68.5233 29.8862H72.502ZM83.9604 22.9V34H82.4416V31.4537C82.3341 31.8762 82.1841 32.2587 81.9916 32.6012C81.7991 32.9437 81.5716 33.235 81.3091 33.475C81.0466 33.715 80.7516 33.9 80.4241 34.03C80.0991 34.16 79.7491 34.225 79.3741 34.225C79.0341 34.225 78.7116 34.1763 78.4066 34.0788C78.1016 33.9812 77.8191 33.8412 77.5591 33.6587C77.3016 33.4762 77.0679 33.2562 76.8579 32.9987C76.6504 32.7387 76.4741 32.4475 76.3291 32.125C76.1841 31.8025 76.0716 31.4512 75.9916 31.0712C75.9141 30.6887 75.8754 30.2862 75.8754 29.8637C75.8754 29.4412 75.9141 29.04 75.9916 28.66C76.0716 28.28 76.1841 27.9287 76.3291 27.6062C76.4741 27.2837 76.6504 26.9937 76.8579 26.7362C77.0679 26.4762 77.3016 26.255 77.5591 26.0725C77.8191 25.89 78.1016 25.75 78.4066 25.6525C78.7116 25.555 79.0341 25.5062 79.3741 25.5062C79.7491 25.5062 80.0991 25.5712 80.4241 25.7012C80.7516 25.8312 81.0466 26.0162 81.3091 26.2562C81.5716 26.4962 81.7991 26.7875 81.9916 27.13C82.1841 27.47 82.3341 27.8525 82.4416 28.2775V22.9H83.9604ZM82.4416 29.8637C82.4416 29.3912 82.3829 28.9687 82.2654 28.5962C82.1504 28.2212 81.9829 27.9037 81.7629 27.6437C81.5429 27.3837 81.2754 27.185 80.9604 27.0475C80.6454 26.91 80.2891 26.8412 79.8916 26.8412C79.4866 26.8412 79.1279 26.9075 78.8154 27.04C78.5054 27.17 78.2454 27.3625 78.0354 27.6175C77.8254 27.8725 77.6654 28.1887 77.5554 28.5662C77.4479 28.9412 77.3941 29.3737 77.3941 29.8637C77.3941 30.3537 77.4479 30.7875 77.5554 31.165C77.6654 31.54 77.8254 31.8562 78.0354 32.1137C78.2479 32.3687 78.5091 32.5625 78.8191 32.695C79.1291 32.825 79.4866 32.89 79.8916 32.89C80.2891 32.89 80.6454 32.8212 80.9604 32.6837C81.2754 32.5462 81.5429 32.3475 81.7629 32.0875C81.9829 31.825 82.1504 31.5075 82.2654 31.135C82.3829 30.76 82.4416 30.3362 82.4416 29.8637ZM86.6783 34H85.1596V25.7312H86.6783V28.0412C86.7758 27.6462 86.9108 27.2925 87.0833 26.98C87.2583 26.665 87.4658 26.3987 87.7058 26.1812C87.9458 25.9637 88.2158 25.7975 88.5158 25.6825C88.8158 25.565 89.1408 25.5062 89.4908 25.5062C89.8608 25.5062 90.1971 25.5712 90.4996 25.7012C90.8046 25.8287 91.0721 26.015 91.3021 26.26C91.5321 26.5025 91.7233 26.8012 91.8758 27.1562C92.0283 27.5087 92.1371 27.9087 92.2021 28.3562C92.2821 27.9137 92.4071 27.5175 92.5771 27.1675C92.7471 26.815 92.9546 26.5162 93.1996 26.2712C93.4471 26.0237 93.7296 25.835 94.0471 25.705C94.3646 25.5725 94.7096 25.5062 95.0821 25.5062C95.5171 25.5062 95.9058 25.595 96.2483 25.7725C96.5933 25.95 96.8846 26.2062 97.1221 26.5412C97.3621 26.8737 97.5446 27.28 97.6696 27.76C97.7971 28.2375 97.8608 28.7762 97.8608 29.3762V34H96.3421V29.3762C96.3421 28.5462 96.1846 27.9225 95.8696 27.505C95.5571 27.0875 95.0833 26.8787 94.4483 26.8787C94.1083 26.8787 93.8033 26.9387 93.5333 27.0587C93.2633 27.1762 93.0346 27.3487 92.8471 27.5762C92.6596 27.8012 92.5158 28.0787 92.4158 28.4087C92.3183 28.7362 92.2696 29.1087 92.2696 29.5262V34H90.7508V29.3762C90.7508 28.5462 90.5933 27.9225 90.2783 27.505C89.9658 27.0875 89.4921 26.8787 88.8571 26.8787C88.5171 26.8787 88.2121 26.9387 87.9421 27.0587C87.6721 27.1762 87.4433 27.3487 87.2558 27.5762C87.0683 27.8012 86.9246 28.0787 86.8246 28.4087C86.7271 28.7362 86.6783 29.1087 86.6783 29.5262V34ZM100.573 24.775H98.9795V22.9H100.573V24.775ZM100.536 34H99.017V25.7312H100.536V34ZM103.26 34H101.742V25.7312H103.26V28.12C103.36 27.7125 103.504 27.3475 103.692 27.025C103.879 26.7025 104.104 26.4287 104.367 26.2038C104.629 25.9787 104.925 25.8062 105.255 25.6862C105.585 25.5662 105.943 25.5062 106.328 25.5062C106.8 25.5062 107.223 25.595 107.595 25.7725C107.968 25.95 108.283 26.2062 108.54 26.5412C108.8 26.8737 108.998 27.28 109.133 27.76C109.27 28.2375 109.339 28.7762 109.339 29.3762V34H107.82V29.3762C107.82 28.5462 107.644 27.9225 107.292 27.505C106.939 27.0875 106.408 26.8787 105.698 26.8787C105.315 26.8787 104.973 26.9387 104.67 27.0587C104.37 27.1762 104.115 27.3487 103.905 27.5762C103.698 27.8012 103.538 28.0787 103.425 28.4087C103.315 28.7362 103.26 29.1087 103.26 29.5262V34ZM113.908 23.275H118.881C119.256 23.275 119.611 23.3137 119.946 23.3912C120.281 23.4687 120.589 23.58 120.872 23.725C121.157 23.8675 121.413 24.0412 121.641 24.2462C121.871 24.4512 122.066 24.6812 122.226 24.9362C122.386 25.1912 122.508 25.47 122.593 25.7725C122.681 26.0725 122.724 26.39 122.724 26.725C122.724 27.06 122.681 27.3787 122.593 27.6812C122.508 27.9837 122.384 28.2637 122.222 28.5212C122.062 28.7762 121.868 29.0075 121.641 29.215C121.413 29.42 121.157 29.5962 120.872 29.7437C120.587 29.8887 120.277 30 119.942 30.0775C119.607 30.155 119.253 30.1937 118.881 30.1937H115.483V34H113.908V23.275ZM118.757 28.7312C119.122 28.7312 119.452 28.685 119.747 28.5925C120.042 28.4975 120.293 28.3625 120.501 28.1875C120.708 28.0125 120.868 27.8025 120.981 27.5575C121.093 27.31 121.149 27.0325 121.149 26.725C121.149 26.42 121.094 26.145 120.984 25.9C120.874 25.655 120.717 25.4462 120.512 25.2737C120.307 25.1012 120.058 24.9687 119.766 24.8762C119.476 24.7837 119.149 24.7375 118.787 24.7375H115.483V28.7312H118.757ZM123.411 28.6112C123.411 28.1362 123.498 27.7075 123.673 27.325C123.848 26.9425 124.098 26.6162 124.423 26.3462C124.751 26.0762 125.147 25.8687 125.612 25.7237C126.077 25.5787 126.598 25.5062 127.176 25.5062C127.788 25.5062 128.337 25.5887 128.822 25.7537C129.307 25.9162 129.718 26.1512 130.056 26.4587C130.393 26.7662 130.652 27.1425 130.832 27.5875C131.012 28.03 131.102 28.5325 131.102 29.095V34H129.583V31.7762C129.483 32.1562 129.331 32.4975 129.126 32.8C128.923 33.1025 128.676 33.36 128.383 33.5725C128.093 33.7825 127.762 33.9437 127.389 34.0563C127.017 34.1688 126.613 34.225 126.178 34.225C125.726 34.225 125.314 34.165 124.944 34.045C124.574 33.925 124.257 33.7562 123.992 33.5387C123.729 33.3212 123.526 33.06 123.381 32.755C123.238 32.4475 123.167 32.1062 123.167 31.7312C123.167 31.3537 123.241 31.0137 123.388 30.7112C123.538 30.4087 123.752 30.1525 124.029 29.9425C124.309 29.73 124.648 29.5675 125.046 29.455C125.446 29.3425 125.894 29.2862 126.392 29.2862H129.583V29.095C129.583 28.755 129.526 28.4487 129.411 28.1762C129.298 27.9012 129.137 27.6687 128.927 27.4787C128.717 27.2862 128.462 27.1387 128.162 27.0362C127.862 26.9337 127.524 26.8825 127.149 26.8825C126.767 26.8825 126.436 26.9237 126.156 27.0062C125.878 27.0887 125.648 27.2062 125.466 27.3587C125.286 27.5087 125.151 27.69 125.061 27.9025C124.973 28.115 124.929 28.3512 124.929 28.6112H123.411ZM126.377 30.5612C125.814 30.5612 125.388 30.6562 125.098 30.8462C124.811 31.0362 124.667 31.3137 124.667 31.6787C124.667 31.8762 124.708 32.0512 124.791 32.2037C124.876 32.3537 124.999 32.4812 125.162 32.5862C125.324 32.6887 125.524 32.7675 125.762 32.8225C126.002 32.875 126.277 32.9012 126.587 32.9012C127.027 32.9012 127.429 32.85 127.794 32.7475C128.162 32.6425 128.478 32.4962 128.743 32.3087C129.008 32.1212 129.214 31.8987 129.362 31.6412C129.509 31.3812 129.583 31.0975 129.583 30.79V30.5612H126.377ZM133.788 34H132.269V25.7312H133.788V28.12C133.888 27.7125 134.031 27.3475 134.219 27.025C134.406 26.7025 134.631 26.4287 134.894 26.2038C135.156 25.9787 135.453 25.8062 135.783 25.6862C136.113 25.5662 136.47 25.5062 136.855 25.5062C137.328 25.5062 137.75 25.595 138.123 25.7725C138.495 25.95 138.81 26.2062 139.068 26.5412C139.328 26.8737 139.525 27.28 139.66 27.76C139.798 28.2375 139.866 28.7762 139.866 29.3762V34H138.348V29.3762C138.348 28.5462 138.171 27.9225 137.819 27.505C137.466 27.0875 136.935 26.8787 136.225 26.8787C135.843 26.8787 135.5 26.9387 135.198 27.0587C134.898 27.1762 134.643 27.3487 134.433 27.5762C134.225 27.8012 134.065 28.0787 133.953 28.4087C133.843 28.7362 133.788 29.1087 133.788 29.5262V34ZM148.697 31.2587C148.59 31.7212 148.422 32.1362 148.195 32.5037C147.97 32.8712 147.694 33.1825 147.366 33.4375C147.041 33.6925 146.67 33.8875 146.252 34.0225C145.837 34.1575 145.387 34.225 144.902 34.225C144.497 34.225 144.116 34.1775 143.759 34.0825C143.401 33.9875 143.071 33.8512 142.769 33.6737C142.469 33.4937 142.199 33.2762 141.959 33.0212C141.721 32.7637 141.519 32.4737 141.351 32.1512C141.186 31.8262 141.06 31.4712 140.972 31.0862C140.885 30.6987 140.841 30.2875 140.841 29.8525C140.841 29.4175 140.885 29.0087 140.972 28.6262C141.06 28.2437 141.185 27.8912 141.347 27.5687C141.512 27.2462 141.712 26.9575 141.947 26.7025C142.182 26.4475 142.449 26.2312 142.746 26.0537C143.044 25.8762 143.37 25.7412 143.725 25.6488C144.08 25.5537 144.457 25.5062 144.857 25.5062C145.45 25.5062 145.985 25.6087 146.462 25.8137C146.94 26.0162 147.347 26.305 147.685 26.68C148.022 27.055 148.282 27.5087 148.465 28.0412C148.647 28.5737 148.739 29.17 148.739 29.83C148.739 29.925 148.736 30.0187 148.731 30.1112C148.726 30.2037 148.72 30.3062 148.712 30.4187H142.39C142.435 30.7962 142.525 31.1362 142.66 31.4387C142.797 31.7387 142.975 31.9937 143.192 32.2037C143.412 32.4137 143.669 32.575 143.961 32.6875C144.256 32.7975 144.582 32.8525 144.94 32.8525C145.492 32.8525 145.954 32.72 146.324 32.455C146.694 32.1875 146.98 31.7887 147.182 31.2587H148.697ZM147.167 29.1062C147.117 28.7462 147.03 28.4287 146.905 28.1537C146.78 27.8762 146.62 27.6437 146.425 27.4562C146.23 27.2662 146.001 27.1225 145.739 27.025C145.479 26.9275 145.187 26.8787 144.865 26.8787C144.535 26.8787 144.232 26.93 143.957 27.0325C143.682 27.1325 143.44 27.2787 143.23 27.4712C143.022 27.6612 142.85 27.895 142.712 28.1725C142.575 28.4475 142.477 28.7587 142.42 29.1062H147.167ZM151.263 34H149.745V22.9H151.263V34Z" fill="#FCFCD8"/>
</svg>
