<svg width="24" height="24" viewBox="0 0 24 24" fill="none" xmlns="http://www.w3.org/2000/svg">
<path fill-rule="evenodd" clip-rule="evenodd" d="M9.91175 4.3139C7.42646 4.26895 4.99206 5.42363 3.46901 7.54904C3.24705 7.85879 3.02708 8.23981 2.64647 8.89909L2.61938 8.94602C2.61538 8.95293 2.61137 8.95988 2.60734 8.96684C2.5618 9.04558 2.51453 9.12732 2.47841 9.20703C2.13385 9.96749 2.37446 10.8655 3.05309 11.3518C3.12422 11.4027 3.20604 11.4499 3.28484 11.4953C3.29181 11.4993 3.29876 11.5033 3.30568 11.5073L9.47611 15.0698L5.85111 21.3485C5.644 21.7072 5.76691 22.1659 6.12562 22.373C6.48434 22.5801 6.94304 22.4572 7.15014 22.0985L10.7751 15.8198L16.9456 19.3823C16.9525 19.3863 16.9595 19.3903 16.9664 19.3944C17.0451 19.4399 17.1269 19.4872 17.2066 19.5233C17.9671 19.8678 18.865 19.6272 19.3513 18.9486C19.4023 18.8775 19.4495 18.7956 19.4949 18.7168C19.4989 18.7098 19.5029 18.7029 19.5069 18.696L19.534 18.6491C19.9146 17.9898 20.1346 17.6088 20.2919 17.2617C21.3712 14.8795 21.1537 12.1933 19.8714 10.0632L19.9796 9.87596C21.5674 7.12578 20.6251 3.60913 17.8749 2.02131C15.1247 0.433496 11.6081 1.37578 10.0203 4.12596L9.91175 4.3139ZM11.5489 4.51982C12.0292 4.63337 12.504 4.79425 12.9671 5.00405C13.3142 5.16132 13.6952 5.38131 14.3544 5.76196L16.3968 6.94115C17.0561 7.32176 17.4371 7.54172 17.7469 7.76368C18.1597 8.0595 18.5361 8.38993 18.8743 8.74862C19.7643 6.78183 19.0338 4.42247 17.1249 3.32035C15.2159 2.21817 12.8072 2.76537 11.5489 4.51982ZM10.2722 5.83275C8.13483 5.66048 5.99511 6.59908 4.68828 8.42276C4.51485 8.66479 4.33363 8.97684 3.91842 9.69602C3.88813 9.74848 3.87012 9.77972 3.85691 9.80353C3.84851 9.81867 3.84428 9.82703 3.84428 9.82703C3.79582 9.93516 3.82994 10.0625 3.92597 10.1319C3.92597 10.1319 3.93382 10.137 3.94866 10.1459C3.972 10.1599 4.00321 10.178 4.05568 10.2083L10.8756 14.1458L17.6956 18.0833C17.748 18.1136 17.7793 18.1316 17.8031 18.1448C17.8173 18.1526 17.8241 18.1561 17.8262 18.1572C17.9349 18.2064 18.0626 18.1718 18.132 18.0749C18.1295 18.0784 18.1322 18.0752 18.1455 18.053C18.1595 18.0297 18.1775 17.9985 18.2078 17.946C18.6231 17.2268 18.8027 16.9139 18.9256 16.6427C19.8531 14.5956 19.5936 12.2689 18.3704 10.5029C17.9716 9.92709 17.4702 9.41077 16.8732 8.98295C16.6311 8.80952 16.3191 8.62831 15.5999 8.21309L13.6513 7.08809C12.9322 6.67287 12.6192 6.49323 12.348 6.37035C11.6755 6.06565 10.9739 5.8893 10.2722 5.83275Z" fill="#FCFCD8"/>
</svg>
