<svg width="80" height="17" viewBox="0 0 80 17" fill="none" xmlns="http://www.w3.org/2000/svg">
<path d="M7.07668 2.80587C7.41827 1.98457 8.58173 1.98457 8.92332 2.80587L9.88146 5.10951C10.0255 5.45575 10.3511 5.69232 10.7249 5.72229L13.2119 5.92167C14.0985 5.99275 14.458 7.09926 13.7825 7.67793L11.8877 9.30104C11.6029 9.54499 11.4785 9.92777 11.5655 10.2925L12.1444 12.7194C12.3508 13.5846 11.4096 14.2685 10.6505 13.8048L8.52125 12.5043C8.20124 12.3089 7.79876 12.3089 7.47875 12.5043L5.34954 13.8048C4.59044 14.2685 3.64919 13.5846 3.85558 12.7194L4.43448 10.2925C4.52148 9.92777 4.39711 9.54499 4.11232 9.30104L2.2175 7.67793C1.54197 7.09926 1.90149 5.99275 2.78815 5.92167L5.27513 5.72229C5.64892 5.69232 5.97453 5.45575 6.11854 5.10952L7.07668 2.80587Z" fill="#FCFCD8"/>
<path d="M23.0767 2.80587C23.4183 1.98457 24.5817 1.98457 24.9233 2.80587L25.8815 5.10951C26.0255 5.45575 26.3511 5.69232 26.7249 5.72229L29.2119 5.92167C30.0985 5.99275 30.458 7.09926 29.7825 7.67793L27.8877 9.30104C27.6029 9.54499 27.4785 9.92777 27.5655 10.2925L28.1444 12.7194C28.3508 13.5846 27.4096 14.2685 26.6505 13.8048L24.5213 12.5043C24.2012 12.3089 23.7988 12.3089 23.4787 12.5043L21.3495 13.8048C20.5904 14.2685 19.6492 13.5846 19.8556 12.7194L20.4345 10.2925C20.5215 9.92777 20.3971 9.54499 20.1123 9.30104L18.2175 7.67793C17.542 7.09926 17.9015 5.99275 18.7881 5.92167L21.2751 5.72229C21.6489 5.69232 21.9745 5.45575 22.1185 5.10952L23.0767 2.80587Z" fill="#FCFCD8"/>
<path d="M39.0767 2.80587C39.4183 1.98457 40.5817 1.98457 40.9233 2.80587L41.8815 5.10951C42.0255 5.45575 42.3511 5.69232 42.7249 5.72229L45.2119 5.92167C46.0985 5.99275 46.458 7.09926 45.7825 7.67793L43.8877 9.30104C43.6029 9.54499 43.4785 9.92777 43.5655 10.2925L44.1444 12.7194C44.3508 13.5846 43.4096 14.2685 42.6505 13.8048L40.5213 12.5043C40.2012 12.3089 39.7988 12.3089 39.4787 12.5043L37.3495 13.8048C36.5904 14.2685 35.6492 13.5846 35.8556 12.7194L36.4345 10.2925C36.5215 9.92777 36.3971 9.54499 36.1123 9.30104L34.2175 7.67793C33.542 7.09926 33.9015 5.99275 34.7881 5.92167L37.2751 5.72229C37.6489 5.69232 37.9745 5.45575 38.1185 5.10952L39.0767 2.80587Z" fill="#FCFCD8"/>
<path d="M55.0767 2.80587C55.4183 1.98457 56.5817 1.98457 56.9233 2.80587L57.8815 5.10951C58.0255 5.45575 58.3511 5.69232 58.7249 5.72229L61.2119 5.92167C62.0985 5.99275 62.458 7.09926 61.7825 7.67793L59.8877 9.30104C59.6029 9.54499 59.4785 9.92777 59.5655 10.2925L60.1444 12.7194C60.3508 13.5846 59.4096 14.2685 58.6505 13.8048L56.5213 12.5043C56.2012 12.3089 55.7988 12.3089 55.4787 12.5043L53.3495 13.8048C52.5904 14.2685 51.6492 13.5846 51.8556 12.7194L52.4345 10.2925C52.5215 9.92777 52.3971 9.54499 52.1123 9.30104L50.2175 7.67793C49.542 7.09926 49.9015 5.99275 50.7881 5.92167L53.2751 5.72229C53.6489 5.69232 53.9745 5.45575 54.1185 5.10952L55.0767 2.80587Z" fill="#FCFCD8"/>
<path d="M71.0767 2.80587C71.4183 1.98457 72.5817 1.98457 72.9233 2.80587L73.8815 5.10951C74.0255 5.45575 74.3511 5.69232 74.7249 5.72229L77.2119 5.92167C78.0985 5.99275 78.458 7.09926 77.7825 7.67793L75.8877 9.30104C75.6029 9.54499 75.4785 9.92777 75.5655 10.2925L76.1444 12.7194C76.3508 13.5846 75.4096 14.2685 74.6505 13.8048L72.5213 12.5043C72.2012 12.3089 71.7988 12.3089 71.4787 12.5043L69.3495 13.8048C68.5904 14.2685 67.6492 13.5846 67.8556 12.7194L68.4345 10.2925C68.5215 9.92777 68.3971 9.54499 68.1123 9.30104L66.2175 7.67793C65.542 7.09926 65.9015 5.99275 66.7881 5.92167L69.2751 5.72229C69.6489 5.69232 69.9745 5.45575 70.1185 5.10952L71.0767 2.80587Z" fill="#1A1A1A"/>
</svg>
