<svg width="246" height="155" viewBox="0 0 246 155" fill="none" xmlns="http://www.w3.org/2000/svg">
<rect width="105.472" height="122.224" rx="20" transform="matrix(0.866044 0.499967 -0.866044 0.499967 216.521 0.744141)" fill="#26282C"/>
<mask id="mask0_6908_140469" style="mask-type:alpha" maskUnits="userSpaceOnUse" x="120" y="6" width="178" height="103">
<rect width="105.472" height="122.224" rx="20" transform="matrix(0.866044 0.499967 -0.866044 0.499967 216.521 0.744141)" fill="#282930"/>
</mask>
<g mask="url(#mask0_6908_140469)">
<path d="M251.517 57.4047C260.748 56.7719 267.787 62.073 264.331 67.0546L229.869 116.732C226.601 121.443 216.055 122.691 209.839 119.103L136.58 76.8104C129.348 72.6357 133.64 65.4857 143.796 64.7895L251.517 57.4047Z" fill="#32363B"/>
<circle cx="35.6744" cy="35.6744" r="35.6744" transform="matrix(0.866044 0.499967 -0.866044 0.499967 180.521 6.01758)" fill="#2D3035"/>
</g>
<rect width="102.116" height="118.334" rx="20" transform="matrix(0.866044 0.499967 -0.866044 0.499967 102.969 68.373)" fill="#25282B"/>
<mask id="mask1_6908_140469" style="mask-type:alpha" maskUnits="userSpaceOnUse" x="10" y="74" width="172" height="99">
<rect width="102.116" height="118.334" rx="20" transform="matrix(0.866044 0.499967 -0.866044 0.499967 102.969 68.373)" fill="#FFE67B"/>
</mask>
<g mask="url(#mask1_6908_140469)">
<path d="M91.5233 93.5988C98.1314 89.7839 108.845 89.7839 115.453 93.5988L174.498 127.685C177.802 129.593 177.802 132.685 174.498 134.593C171.194 136.5 165.837 136.5 162.533 134.593L91.5233 93.5988Z" fill="#2C3034"/>
<path d="M82.1581 129.038C88.7661 125.223 99.48 125.223 106.088 129.038L165.133 163.125C168.437 165.032 168.437 168.125 165.133 170.032C161.829 171.939 156.472 171.939 153.168 170.032L82.1581 129.038Z" fill="#2C3034"/>
<path d="M91.5234 93.5996L139.383 121.229C145.991 125.044 145.991 131.229 139.383 135.044L91.5234 107.414C84.9154 103.6 84.9154 97.4145 91.5234 93.5996Z" fill="#2C3034"/>
<path d="M82.1582 129.037L130.018 156.667C136.626 160.481 136.626 166.667 130.018 170.481L82.1582 142.852C75.5501 139.037 75.5501 132.852 82.1582 129.037Z" fill="#2C3034"/>
<path d="M49.6464 89.5455C52.9505 87.6381 58.3074 87.6381 61.6114 89.5455L139.904 134.744C133.296 138.559 122.582 138.559 115.974 134.744L49.6464 96.4529C46.3424 94.5455 46.3424 91.4529 49.6464 89.5455Z" fill="#2C3034"/>
<path d="M16.8749 111.469C20.179 109.562 25.5359 109.562 28.8399 111.469L130.542 170.182C123.934 173.997 113.22 173.997 106.612 170.182L16.8749 118.377C13.5709 116.469 13.5709 113.377 16.8749 111.469Z" fill="#2C3034"/>
</g>
<rect width="105.472" height="122.224" rx="20" transform="matrix(0.866044 0.499967 -0.866044 0.499967 241.596 104.088)" fill="#26282E"/>
<mask id="mask2_6908_140469" style="mask-type:alpha" maskUnits="userSpaceOnUse" x="145" y="109" width="178" height="104">
<rect width="105.472" height="122.224" rx="20" transform="matrix(0.866044 0.499967 -0.866044 0.499967 241.596 104.088)" fill="#FFE67B"/>
</mask>
<g mask="url(#mask2_6908_140469)">
<path d="M120.43 199.161C123.843 201.131 129.376 201.131 132.789 199.161L237.834 138.519C231.008 134.579 219.942 134.579 213.117 138.519L120.43 192.027C117.018 193.997 117.018 197.191 120.43 199.161Z" fill="#2D3036"/>
<path d="M149.984 209.397C146.571 207.427 146.571 204.233 149.984 202.263L248.85 145.188C252.262 143.217 257.795 143.217 261.208 145.188C264.621 147.158 264.621 150.352 261.208 152.322L162.342 209.397C158.929 211.367 153.396 211.367 149.984 209.397Z" fill="#FF7C7C"/>
</g>
</svg>
