<svg width="18" height="16" viewBox="0 0 18 16" fill="none" xmlns="http://www.w3.org/2000/svg">
<path d="M11.7223 11.1011L11.7223 13.4907L6.87318 13.4907C6.87318 13.4907 6.90735 12.005 6.87318 11.0246M11.7223 11.1011C10.7313 10.8289 8.37398 10.4324 6.87318 11.0246M11.7223 11.1011L13.0914 8.06262L9.14453 1.63672M6.87318 11.0246L5.49824 8.25026L9.14453 1.63672M9.14453 1.63672L9.34477 7.38704" stroke="#FCFCD8" stroke-opacity="0.5"/>
<path d="M16.4697 8.59079C16.4697 4.46539 13.1254 1.12109 8.99997 1.12109C4.87457 1.12109 1.53027 4.46539 1.53027 8.59079" stroke="#FCFCD8" stroke-opacity="0.5"/>
<rect x="8.22754" y="0.0898438" width="2.06061" height="2.06061" fill="#050505"/>
<rect x="8.72754" y="0.589844" width="1.06061" height="1.06061" stroke="#FCFCD8" stroke-opacity="0.5"/>
<rect x="15.4395" y="6.78516" width="2.06061" height="2.06061" fill="#050505"/>
<rect x="15.9395" y="7.28516" width="1.06061" height="1.06061" stroke="#FCFCD8" stroke-opacity="0.5"/>
<rect x="0.5" y="6.78516" width="2.06061" height="2.06061" fill="#050505"/>
<rect x="1" y="7.28516" width="1.06061" height="1.06061" stroke="#FCFCD8" stroke-opacity="0.5"/>
</svg>
